<mxfile host="Electron" agent="Mozilla/5.0 (Windows NT 10.0; Win64; x64) AppleWebKit/537.36 (KHTML, like Gecko) draw.io/27.0.2 Chrome/134.0.6998.205 Electron/35.3.0 Safari/537.36" version="27.0.2">
  <diagram name="Page-1" id="cLAeDFMU2G9Z4pWNUU2c">
    <mxGraphModel dx="1426" dy="849" grid="1" gridSize="10" guides="1" tooltips="1" connect="1" arrows="1" fold="1" page="1" pageScale="1" pageWidth="1100" pageHeight="850" math="0" shadow="0">
      <root>
        <mxCell id="0" />
        <mxCell id="1" parent="0" />
        <mxCell id="mwaKh76oC23nNq7Pn_I2-1" value="" style="shape=image;verticalLabelPosition=bottom;labelBackgroundColor=default;verticalAlign=top;aspect=fixed;imageAspect=0;image=data:image/png,iVBORw0KGgoAAAANSUhEUgAAAl0AAAIjCAYAAAA5qq6aAAAAAXNSR0IArs4c6QAAAARnQU1BAACxjwv8YQUAAAAJcEhZcwAADsMAAA7DAcdvqGQAAJ6rSURBVHhe7d0HYBRV/gfwbxISQu+iqDQTqlEO9ZSgICpqInqgEuspZyGKHibnYUHBwtn1iJyiRD1RTz2DJ+gfQUFBLKCiFENPRIo0AQk9Pf/3ezuTzG5mN7PJZrObfD/43ClvZ3ZmNjO/fe/Nm4gyBURERERUqyKNVyIiIiKqRQy6iIiIiILArXpx8YIPsf6zDEQeyFVjVdU6RqC0ZRx6XpCGxPP+ZEwjIiIiIjvlQZcEXBGLRmHA8Xl6hlNLtrVG2eDpDLyIiIiIfCivXlw3f7LzgKtxWyB5HnDcYJzVKQ+r5z1vzCAiIiIiO+VBV+TBjSgqa4TS5t2AoR8Ag18Holsacy1iOwDDFgLHno2yqFjsL2mF0oNbjZlEREREZKc86MovjcG+4rYoPP1ZFP2+Qc2JBvrcbsw1xB6jAq4FQKt4lM0bgf2bvkVhWWOEY68Tc1MjEBHhSgOflzZsLrnPDyyfHhGRirnG9Ermpvqc7235RERE1DBVlHShDLGRRxFRsBclrfvqRvJo09uYqzTpCFyqAq6WJ6FswbU4tH+vDrjCUu7z2DC8TAeLZWVzcHLajTDjopw1izF6jjlvGpJcky1y8fxAFUzNAkYbUyrxsXwiIiJqmMqDrsaRBWgZdRAR392Dou1LULJjCXDSVUCvW1XAZZRwteiuAy70uQNNL5sNNGoi9zAiOqLIWEqYiLsLd5VHU/Hok2gMaonoE28M2orDXd+oYGracGPchs/lExERUUNUHnSVlEWpFIn8whIc/elVFC55APjkMiBvPXDJ5yrg6lYecOG4QTi46B5EFB9G60Z5aBRRYizFRu7zGFhezfY8UiMGGqU+cy3DwnPcKFEy3puq6/Hsptlxmk/kYM3ik9EjToZzsWHVYqTFu94XmGpB6/KJiIiooSoPugrLorG3uD3yy5ro8aOlTVC6ZzkwcEp5laIZcO2fl4qoph3QIjofB0ta6IDNngqk4tNwslFd9waykGnM8U2CpnhkpeQYVXRlmCYlR3OfQdrJc9yn2XGaT5mbmoxVGeOMakSjFEu/LzDVgu7LJyIiooaqPOiS0qrYiKM6SZVhWUwblCR/DrTqWSngatx5CJoPfgYFJ16BYhWsScBmK3cDViVmYJwRccTd9aD3dlBWuR8ja/FoPHiXR/FQfB8kZia7l0BZStLKG7bb5avEVRr2jz45+MZzPVoSho9ejKyPqxt1VbV8IiIiakjKgy5pl9Wy0UGdpMqw2am3AEVHUTLvChS1OR1FkS2w/9PRiIpphpi2cTj0zUQUbHTV20Xo/wdB3F34pkxKzG6sqDY0prlKp4yG73b53EhAdCPwRlmVAdHJ1aoXdL58IiIiahjKg65yEY0Q3evPiNm/EiUfDcbBTd8g7/spyJt5GYp++RjROa9i3weX4ehKV0WhLh2LzNfDlcT1wMmL0/CMEfTkPv8PS/WiNDBfjDU5xujcWRXz4i5BSmIm/uGlpCrurm+Qk5GIVRt8l0J5zaerHx+Ez3go93n8I9NsVO/Z3syOJY+T5RMREVGDYgm6jPIq6ZurUTM0OqY/ik74Exr1vxeNTxqG6Nbd0GrAfSjucxcijzkdLc57Hs2P7YMWUQcr3ltJEqbNGY3MZFf1341IsVQvxuGuByvmuXfBIG2rpE1VvGueWVql+8ZyjcennVy5+tFURb7cDaugVlyeR5KrKlICJ2Oabov2TbUCJ+/LJyIiooaq/NmL/77/XNzUbRFwyt9RVnQQZSddi4Mr30DjuMtQvHcNGu+ch+Jet+PggjREteyCln+8C2VbPsGhDR9h5pZTcPOTX+gF+iZBzT/QJ6d6wQwRERFRuCov6eo1NN318Oo1LyG/SRwK9m9D4daFKP71CzSJAQ7k/a7772pyyq26T6+ywztwaM8WLN3WAr0vTDeWQkRERER2yku6xOIFH2Lt/CkoPrBFN0wX0sC+FK4+vIRUJDaOzEdBWRNEtOiGky+8A4nn/UnPqxpLuoiIiKhhcgu6iIiIiKh2VL57kYiIiIgCjkEXERERURAw6CIiIiIKAgZdREREREHAoIuIiIgoCBh0EREREQUBgy4iIiKiIGDQRURERBQENQu6cjOQmJiBOn+Uc6h8DqJQFo5/J/zbDj7uc6Ja4zvokj++iAhEuKVUzA3WH6Xt+hOR4W3F1s8VyM9Y6XOofWDMcszbZ6vu5wzk9vnDbV9UYz84Fcjtc/vMATh+/gjYduQiI9G6DRUp0esfRJB57Gf9uQJ5HL2xriMY67NTab1yvNS56vM6+jwmu/1RV/uIiByUdA2YjJyyMv0sRleahqS4NCxenIagPD6x0voXI83bimvzc1k/xxwg2d+TlrfPVt3PHMxjYCXrzZmMAXp/qO+CMTnk1dbxC5o4pC02Pn/5/neNL/b6BxFMc5Ean4WUHOMzqp2csDYn+Putzv4uhiEFWZhtfqlyZ6uxFAw7v66/N0QUSqpXvejt11P5r1wfpVGBYl1ffDqWmNP051K/Mm9Q05akI978xR1IScMxeslaqEuKx3ZXlKDkZiQa01SSz+Ttsz34QMW+tFuW8b6MVHN6BFJlhrk8b/OF2/JUMtcTSD7WX2kfuCZW/p64LUO2O0jHr9J6FbfPZ0ybm+oa97UNmjzQ3Zwu+6GWt0PYfV7hbbrB9tjUWAJ6lkcXSZg2TYXkxj52fU9TkWqU1ul9Uz6sspv5XG+uPK64feby/R6gv6cai8OwFCDLjLpy1gIpwxBn3Q63z+P+3a+Ybx4r2T+Vj1vA2X0mk/5sFccscPuKqOGqOugyTmbmH53dCdz1K3ctJhi/vMty1G++G9xPmNXmuX59gpL1pSNhjrk+9cvfyO4Sh7Q3K0oDAl0SkJsxCZkDeiPe43PkTM5GspyV1MnqhvQEzDH2x5wEI0DTPD7bqA7GdC/LEmofrB1ubOuc0cic5LFvbedXtY8CyG79tvvAx/ekfBlSehas46e4rdfLMUiaZtl/3rZBLpLJUBvsmq7StKTa3Q7v3xlv0w0+v5/VlYThozORLH+j1nVZLclG7zfVOuU7knwDYA57fp+9iEtbXL5vy+YkIP0ZWU8t/D1VU1zPBCyR0j1l7qxMJFREoIqX701cTyQYP+ByZ2chYTQwS3/MHKyF8R2tKbW9budQtV/0j1Sv32UL85iZ+yo5CIEgUT1WvepFY1a53PXIhnHCNf+ozZKgmvJcvxTVy/rU9HHBrNuynLjis1KQY/M54tRP3QGZszBXTqR6f7hOUEnTHFTDeVuWjFi3Nb535eDJbn4w95Hd+u32ga/vSW1/VrvjJ9Ot6/V1DEzetkFXJwVpf5u8fd6qtqM6308HkqYZf6PDZ7n2jWfwNSAFw2Sny3fEOqxnOmAtlUnOBLLXew+WfO0D6zH3Z/1VkRJUvY5crM8ejeHWnerte6OD1WysVxuSszYBw8f1RrZEXZI/oafrO1pTanvdzqHmDwivn8nCPE5Ctk+9Qz4rEVVP9aoX7Xj+YYdTex8nrNtXZRuNJEzTeYdjlj6h1cGvw5y1xq/ZuuJlH9TV98Sv41eFsP+u1/L3U0oGy+YYAUiASMBlbTNWmyW31WYEUHNVAJ4wvPJ3wsv3RsV9WJszF7OyeyNe2oZlq/2m/n4T3KK2WhL232Wi8BKYoEsXkadDl/YHg15fRaNVKZa3DTACVdrmjcd2688xWp1s1QUiVTeOkItbDiYPUCfiza485Tw/m7dluUb9p9stWRr2BpvdPoCf35PaPn6enBwDb9913ZDay7bV1nZ4+7xVbYfdsanp90SCIrcqTClp8rN6zLKf9Gc2hstZSl0qza/tvyeHkoYnID05vXLA5O17o0gpHCZNQra0AVP/ZHTWLKB3QOoWffDxmWzNnYVMa8kXEfktQCVd6uStfnlmJxvF1JLMxqE1pU4K7m3KpLGnWp+06Yh3TbthbULlX71xaZhgtDGpvVvq3bc7XtrJSONhdTJTH874vPHISnkTaV2MtwjrZ5u+25joZVnV5r6PdNWBMadGdImDVEPIcfFRQmK3D+L8+J4E5fh5cnIMvG2Dq22RdbqOQWp1O7x93iq2w/bYGPOqS5fQJBvLVElKpd70o0RR7ac3pd2V8f5Kf9OyHxMqzgVu84Py9+SQroLzqFrUvH1vFDke6o8zxYhmZDQzu3cQghsfn8lkPf9Kk8WalhITNXARZVKmTPWf3IE3azjKgnHhqY9k/03qXdEWjKi+kx9Ycr8Dv/NEARO4Nl0UcuZabovXv1IZcFXDXFc3EMnZmOxPyQ0REZEHlnQRERERBQFLuoiIiIiCIOLAgQMs6SIiIiKqZaxeJCJt3rx5uPDCC40xIhL8u6BAisjLy2PQRUT47rvv9MVl//79xhQi4t8FBRLbdBEREREFgVvQ1bRpU52IiHg+IKqMfxdUE5VKunbs2IFvv/3WGCOihoznA6LK+HdB1VWpTZf5RTrrrLP0ayCUlpXixa9exGsrXsOB2ANo3aE1CvILcGDrARzf5HjcN/g+DD9luJE7sOrruouLi/UDaqtDOktt1KiRMRYelixZguU/LtPDzVu2Rr8zBiCirESPO1WKCMyfPVP/So2MisRlf/oTOnXqZMwNjEVTpmDla6+hycGDaN9aHe/CQmw9cABNjj8eg+69F6cMr/53raSkBEePHjXGnGnSpAmioqKMMd/s2q5U93wQGRlZ/hBlp+RzyjbWB40bN9Z/Z1b5+fnGEAVLaWmp/i7WRCD/Lohq3JB+9erV9l9q6cVbvRSWFGLyj5Px6eFPMfTCobjy+CsRq/7JCWlX0S68vup1bP52M+7oeQfSktJc73Wooa5bTt6bNm1Cy1at9Lo0Y73lPMct9u3bh65duyI2NtaYUrXt27Zh6dIf1DZHIEZdUI457kSUSuBnzNfrknWqAdlG/SpTXf/p4chGkfh1y2YUFhToPAMSE9GuXTt5Z5VmZGXhnXfeQZ/efXBK/9OQ/Ker/DqZymcoLi3Gw/fcpQMRcc211+DkhAQ9XJWqjneJCq5+fO45HJY7nS6+GMdfcTmimjWFirtRuHMndrz+OnLVBSBCBXoX33WX671+Wr58uf7s0dHRxhTfioqKsGfPHpx99tnGFN8C2WD4ww8/RPfu3ZHgcP+uXLkSP//8My6//HJjinPyA+LHH380xhTjmDghF+W9e/fi/PPPN6b479ChQ+X7zAwyjxw5gmbNmunPJoHkARV4y7h874W8ynhrFZjXW2UFKh1SEbizv/HasFP97cl5rib7OVB/F/L+ouIS9d04irKISDSOboSYmEZo26aNkaP2cN3BX/fevb/ra/WR/AJ1XihFrLpuNlHfRbegy6ynlhOGU3KOyS/I1ycRuSi5LrgV6dFPH8XrW/+NxKGJSGydqD/En9r8CVsPbUV2RLZ+z7tb3sX2+dvx7uXvIrFborHkqjXUdR8+fBjbVBDUs1cv1/ot6xX6Vcb1mDFukZ2djeOOO06f9J2a9+mnWLhgIbZt34ZBg4cg5YZb0Ty2sTFXkVVaXl2fybVuFaep7Y3AwSMFyHwhA79u3SI5kXxJMs4ZNEgPe7P4m2+wbNky5GzIwYldumPQBRchUn2BG0VJ4FH+1fUtKhIfz/oALVo0w6+bN6Gp2m4JSPwJuqo63p8+9BC2TZ+OC845G+3OO1t9shKUFav3Fbo+peyTXW+/jdnqInDFu++i64BKj2iv0jdqXyQnJxtjzvzf//0fBlWxj02eF5fqnA9Mu3fv1vu4QAXY3bp1M6bak6oaCSQlMJFAzV/y3oOHDuvvWKVjIxk8hq1k+oLPP8fgwYONKf7JzMzEqlWr1Ik8RgfESUlJOOaYY7Bu3Tr1fWuhp0vQJftDAlDZl++//74usZR9IyWt9913n7G0eqR0HyIPP4vSxpcBMWcaE4Nv/fr16m+3DB06dHD8A89TTf8uJLDftGkzfj9cjPySRiiLaoKIyCh1fjiKmIhCtFa/fbt0PsGvH8FOcd3BX7ec937e+AuOFJbhcEksyqKb6uthSdFRxJYdqXmbrgjjRKeTWnD5q0pb9m3Bf7PfRenJpWgd3RprDq/BT7t/QucWndEksglW71+NtYfXokebHjjQ9wDGvjfWWKozDW3dRSXAz7tLkfub+uV8tLR8fdaLjHwO/eox7pn8JScuuXgUFhahTH2hG0VF4Le8g9ilkrz+tk8NS/rd9bpj3wHsUMM7fj+AbXsP4Nc9+yX2Ucsp1cuRVCqRTBUkuPxMXRSbN2+O444/HvE9eiOuZ190jeuhUs8qU7d4lU6Kx57dO7Brx3ZEq4ug0+o2K1/He9+WLVidlYWT1W5t2e8EdLjuejTr2xlH1q3B0bzVaHb+YMSecw6a9uiBvurEnTXWv++alfxBOyV5q7OtVtVtuyIXubVr16KN+kXpq0pUfw/U90kujlUFZ75EqS+X9btfnsxj5pGijCTDNfHll1+qv4lC/SNGtvmnn37S2y1/LxJESkmjlCxLiZdMlx88ks+s1pb8gVKwfTuWJiZiw9/+pv9GvZF5kkfyynsCrngTIo88hahG8sOoZt+/mpKAXL6Dv//+uz6XBIo/fxfLV/6EHQfKUNi8K1oc0x0dOx2P448/Du2O64qoNt2xp6g5Vq1dr39MBxrX7Vr3sUFat5zPVqzMxu/50chv3h0tj+mKY489Fsd3OhYdjuuCqHbx7kGXRO5yYvCHPskZJ68ISWpcv6r0Ze4i5DXPQ1HTIny7/Vus2L4Cq7au0tU8B48cxMptK/W0Zb8tQ8QxEdjbaC+273d+Emho6160vhDv/5CPT9cUqvylrnXaJP2ZbKabSZivTslFRC6OJ6jAR9qqNVJBSLfjWqO7SuarTp3aqNc2OEmn1vo1Tk3rdmxr9T75BeJajiS1UGPpvvXt3ccYUm9RKb9Q/XopT0U+U4FEqgEg+8vb8f550SK0UMFU85hC7Nu8EHs3ZqPtRTegeEhftBjxZ3QYcA5+WfI5Dq1eiWPU+6LUhXh/NS92+fmFOvCtiuSRvDVRnfOBlZQstGzZUleFe5OTk6OruoW/38lyciw8jo85bJfMYMsc/u2333TwY00fffSRsXDfJLAdOHAg0tPTceedd+LEE0/UAZW3dMIJJ2CsCrr/poKeK664wq8g2hcJnn4cNgxtTj0VB5cvx9q//tU28JJpa9TnzFMBQ8chQ/R7Ahl4lRUuQ6OCTPX6E8pK8oypdUfOW9L+VX58SG3Dxo0bjTnV58/fxbJly1EQ0RzFLdTFPrKRfFVRVFyKIwUlKC5RZzOZ0LQDCmOOwYoVK413BQbX7Vq3ulRhw84j+Pbn/a4f+rW87qJGrVHUXAVYXra70s88aRjoT+NAffExktsvTJVy9uYgv3U+8nfm44ljnsBLPV7C64mvo32T9hjcbTAyEzL1tOuKrkNpYSkKmhbgp23Of/k1tHUXFZehY+sodGnfCM1j1bosFw9J5ucR1mFhjktav7MYL3x+GFPmH0H2r8VGDt/MoEuSnLijoiIQ0yiyPEWr1EiS+kbJl1zCI/mCF6nIX4KjgkL50qn3SzKX4zDoMsliZf+2ahZrSU08xt1TiyYxrjfXkHX/eR7vPeoE3KrgKKKa5KNpYQ6KZg7H5q/fx8l/fgDHD0zGZ0+mo/mX/1C//DcjQm1304ICbKtGCcf333+vT/hHj6rvVn6BvphIEGuSYZkm8ySP5JX31IS/5wOrvn376rZaffr00W1rPEkJkFQnrlmzBqeqYKG69PfC+P7rYyLDlr8LnYzpnkne07FjR/T7wx/cktNSN3m/tTRRxn/55RcdaJpp8+bNOm3ZskVXUUke/VmNz1BT+Spo+k4FT8edlaD39Wl/uRGFW3OwSgVX1sBLhrPvuAOFm9fh9BuuR48uXdDt8iT9XllGjRV8hpiSj1B8dDHKivfIzjBm1A3znCX72LzxSI6VVP3WlJO/iy1btiJf/eY7FN0JJeq8FxFRhiPqPHi4QC7CpTiqhguL5PYe9f1tdgwat2yn/14CgeuuWPdR9cN7z5Ey7DgQoddbW+verv6GCtXp+FD0sT632+0vXuqqzfpqp8pPIPIqJzFLKmumPkELyeTKW5XSpupiHOO9WNxTQ1x3gTpoR1Wgpo5p+WewS8LbeONo4BgVvDVuHIGtvzsrCZILulktWKxSYXEJcrftc0s/y+t29WqkjTv24Zcdedi0cz827cpTQaN6b6lrGa5qpYqAwSl5h6zbaSqSHRUA5r6zO95N1Im9paxGCpbUa96hMjVdv01rFFOGJp3KEHOcazxW5W9suRg6JUHUoUOHy9Phw0d11Z0EWK50VE+z5pH3VFd1zgdWUrUj1WtStWaWOJhkXIIuqTaWIEVea0IfG+N46ADLcpzM4EYnmW6TZJ5Z5SipOmQ50qbryiuvtE1SsjVixAi39QbCd2rZ8vk7Hdsdh/buReHGTeid/Cfkb1qHhTffrIMtSYvUcP7Pq9Hz/GQU7/wNB9RFokOTtuh+5TB8N3KksbTqiTj6X0SXzEfRwbnqb8D4zqk/1siiTxB55Fk1/x2geLNrei2S84oEt1KCmpubq9vsyL4R8v2TvxGZJqWZ/v7oMzn9u9i7dw9KImJ0m6IItTMOFZS4Lr7qVS7ABcXSRATqR2sEYqMj1HmiuW58HQhcdyNEq99Cher8r1aHg4VR2FsgJU9y/YtAs9iogK9bqpzLIpu7r7tErpsqyd+gyiPrrnR28btNl0rlJzj1ap7wJA3oPgDR6h9aAVfnXo1zvz8X5356LnYe3olPcj/BuV+rcTXtyfwn9bIaN2uME9qdoIedaIjrdgVdKmhRXyRZr5mE9dVz2BwX8l4J3AqKnZ90zF+NZgmVBFDtWsaq1MRIsWhrjLeV1KIJ2ugU60rNY/V7zGWYy/Gbes/RgiKPpE6mlaa5kpSyBYKv4x0/cCBKVWBxSP3t7t7TCG2vfhedE6/Ehg/G4bcV7+Pcv2WgdfJfUabO0wVqOS3USb/tCc6/aya5YOzffwAHDx5U6ZB+PXDAPVnnSV5f7amcqG6bLlO/fv30xe+kk07Sryap5pFSmV27diEuLs6YWn362BjHozzQMsZ1Mo6bXRLWKkd9kTamO2Uux7pMc1g+T35BgU5H8/PVq6uK+MyzzsIbb76pT8Yqo1vyp0uX1mo5edu2Ye/uHTiwf79OB9fnIu78i7B9ywZ8cN11mHHttdi7eT1OOncojmzdVp4vv1kTbP3qG7Q+s7qN3dWnP/ICooq/RtGhha5xobah+Oj3KD26QMVg/4eyw9PQ6OiTiDj8GMpKdrnyBJjchSoli+ZdoVK1LcdS/gbM4yrnHQn2zcBLbmaoDid/F3l5+1ES1QxHiorVhb8Uh46W6pL/oyoKKFE/OOXCLLUEjaMjVQAQiZhmLXUXM4HQ0NddoK41izfsw6tf/Y7Xvz+CpdsjseVQDF75Lh+vfrMf/1m8A81iArtuOd8WRDZ1rXv9bry6aBfeWHoIb6woxVs/ReLNH47g1a/31LxNl/xxWS9E1hPN0K4Xum7Plx8+siY5j8jd+nJOkmGp+ZFX+TvNh25wdnKbk9WIQw1w3RIo5euSrrLydQq7V89hM8l7ddClAjinrEGXlFBJPfVRFdAcVRcPV3K1sZIAqKK9lXuSUqeKZVQv6JJ93dqmGtFbNWOgqhfVjvN6vDtfdJE+3ofU325Em9ZoH3cy1r2WjqJPnsXOjGuwd9n7KD52IPb9og+3Pt5tTq76eEuj608++QRfffWV7hJB9pn8YcuJRZIMewZdnvPlPfJeWYYsS5bpVLXOBx7MBvVycZPgSi54stz27dvrUgn5bNW5Y9GTHAd9XKyvxvGSpPMYw57JvCBbk+sdzsgyzFfPYUnyPTerhKUNV3GxSiUV1V1mya81SemfU6c8+yw6jhiB1V/Mx6EDe3BEBVOSDq5ej8FnD8bmrRuw/ddcnJl4Ng7n/lI+v6hxBFa8/w6iu/fSy/BfKSIPPaoCrhU6wCon+6BMbUdhLkryl6m0UqeC/e+qE9iXiDx4N8qK1huZA0OqryW4atu2rb6xQZJ852R/y9+ASRpOy/dP7iaVkljpCkb2tz+c/l3IzR1RUvSt1r/nULG+GOvpavdEq/9Fq/mNJABRw1GREWgcVeZWHVwTDX3dsjypbWjTNBLtm0m1YgkOHClCx+ZAxxYR6NhSbqgK7LrlvCHbp9et/gbaNI1Cu2aRaKd+bLeNLcUxarhj86jKJV3+tuFwuwBJMk9carhxSQyuOf4aRLeMVj/TVWYJQtT2fbvjW6zbt871s1+mFbmKbO+Ov1t9oEofyauGuG5r9aJJ1m++2iUhJ3gzSdCVr5bjX9Cl1mlcEMzqxW17D7qnPQex3RjevvcQdkj6/RB2Stp3SL3HFWyZy5Fl+ks+v/wBOU1SuhYIvo53mfrV3Omqq9BcncS3zNyD+YP7Y8ebGTi4B1j1RjE+PfMaLB18PRqp87Qc787HHaf786rKr7/+CukDSi4mcvGQO/wWL16su4746qsv8cUXX2DhwgVYsMCVZFimyTzJIx3KynvkvbIMWZYs0x/+ng/snHLKKeVViBJ0SfWPBJ5yoZSG5TVlPS76OBnHxTpdkmdeX8kp+T4K6/s8h4V8VxqpK40EWbZJzbeO+0O29/QXXkCLsy/E2m+/RuGRfSrA2a9T/qr1SD7jTCSddgaOrv1ZTytSQUPM8R2QPf9TRPc4Baf96196Gf6LRFlUL0REdTDGFdleCbiKtqrXyqVIxUe+Q8nRJYg6+ryaf9CYWjPynZIAS/abNJb3xgzGTNKdhwRe5jHyh5O/C7lrMjaqGE0bSwlbmQoy1GdQ51y581uCDmn/KoGHlPw0UZeKyJJ8NG1W/ep8q4a+7tiYCHRW0c4FvZphSPdotGlcqM9/1/RrjGvOaI0rTm+vP1dA1922DZpE5rvW3aEFLujTCoO7xeCiOODSnmW44tSmuObMdu5XerkgSPKXfGnNk5z1ZCe//jP6ZSCxWSKadG/iKt1RgcbVX1yNJ9c86QpI1E5v2qsproq4CinHpujl+aOhrftwfikOHJW2SvYlXcI6LEGOtGWQJBdfSRJsHThSopflVJn645FlmUGTlHQ1jYl2T42j0aRxIzXcSL/GqlczSad0EgBJ/ba5HPOC5Q95yxGjdE1e3VNxpSQlcIEi+9Xb8e6vLlwt1Un4JBWAHc09ip+/VAHXTFdsfUTt+1NUaqX+tiJUcNZ55kw0u/hi10J9kF/Usmz5m5QLhDT4njfvY3z00Qf43/+ykJX1Lt599228885bOsmwTJN5kufTT2fr98h7ZRmyLH+qG6t7PvAkd+1JVY5c8KRKUT6DDEv/az179jRy1Yw+FipwsB4bc7r56i3ZzfeX53Ksw/JP/wK3BFUShJUHWuarJflLtv3MF19Ey3MuwrqfVqC0+BCKJMBSqTR7A0pW5yC6XTs0OvFEoHNH/DBzBpr/cRD+qIK16gVcLmVNrkJx1EA0ap6sPkSM/gMtLd6uXqUD5FhENOqglu/ewLWsZC9KC9UvkMP/NqbUjNx9KtWFco4zzy2SZN/LvpR9LczuAWRc+lKTc6H0nWbOd8rp34V871F0FG2bRaJTmxj92qppI7RQwUjzxlFopl6bqgu0tC1SXw+UqrzyYyQQuO5IdGwVjZaxEXp9Mq3gyEE0VpFWE7Xexo0Cv+6uXbqgNP+ALt2yrrupWl9Ttd5Ydc2XdVfqHFXqqqXo1OmvW3nchZR86BOd+vJaL0aSxNGyo7ht/W2Y03YOivPUxfDoEUQURyCmQwxaF7fGuIJxGHh0oN8n4Ia07nv+uw3b9xVj1/5CdUIpRrumZejUoZWeV3E6M+gJ6n/qBGgGNtYAZ8eeA9h7VH3myEY4pmU0jm8bjaevPt6Ya2/mBzPx8ezZerhtuw4YMmwEDh88pMfdVazHXKW8yPqlrcW8j7Jw5KDrF+7IlJG4qIrgQ3qiX7F8hR7ue8ofcMmIFDS2XJQq1maqPKVQHaeH70tD0yauE6WcoOUXsT+dozo53mUqSFqfmoq2n3yCfVK6pMaLVN5jVNBT2qoV8seNw9Gzz3Z0vEtKinHo8CE0iZV6aRepCqm8db7JJ5O7CE1H84+iebMWthd2u04g/T0feCMlXbJOqWKUuxXlAijfCWnzVVNybGRZ3o6LdVhYh8XcuXP1dltJe52THVQBX6WC6OHDh+Paa6/1uc5Danvl4l6eZL7l86r/GX+26v9qW6R3ful+wl9StfH1mDH4/Yu56NrpRESUqCBOHccI9Z3PW7cORfl5+L1RFNqfPwxnT52qP0MglBV8iUbFs1F04H86qBLRzS4AYv6gtkv9wCrZpAItqW407hSLaIzGLS9HcfNn1bDzTpo9SWmpWXIuZF/K37eQIEymS2mWVCfK91rayklXJhKU9ejRQ+erSk3+LlavWYuYpurvrdUJKCwuUz94y/QF30z6eCuNivbj5/WrMWBAzf7OrLhu17oL1bqXbtqPrXsKcPt5nSA9N4jaWPeKlT+heesOiGx5nNftrvGzF+WEJy3z7S5Gwvq64fcNmLFjBjbmb0RMWQzOVP+Gxw3XRYJLly6tVuDTUNY95s2dGJl4HAqkl3N1Um4UqZKU1fri5QotjRpLS+XzuYp7l/+Sh3EXuQI4bz743/8w+6P/M8YCI0VdsC5OTjLG7FmDrkbRMeiTcAoK8/1r/BrdOBZLl3xVfjKubtDl9Hj/vmEDitLTsU39mi5TARfOPBP91P5rNGeO4+MtbX5K1XFqYgSK4p///Kfu/dwfEjhIn1Cmoyrwd5WmSPGrO7vHnfh7PvBG9vfXX3+tu2KQfSRBhfRv5aTEoCo66FKv5cGMkYTnsFkKYv4IkWmfffaZbdBlDVa9sQu6zCRcrxE4fOSwLtGSz6i/P+ZnlXF5Lc/rInffVafqVYKuRTromoO4lk1QuMG90XpMz2ORm3cUbYckYXAAgy5RVrgcUfmZKD48Twde0c2HorTpvWqlp0N6qMfh5xFZogK/Q5/o/NHNL1Tz/6rmn6PHq0NuyJASXLNBvPywk+pGXc2k/s4lKJPvmFRpS8AlVdwy3Z+OeGv6dyHHsmmrdmimLsaH8uW7B/VdcB1r3aap9DBWZy/HH/qdCulQV77P8vkDget2rVtOENKGy/wMtbVuOa/8uGw5jj2+M5q37Vhpu6V/yxo/e7Gx+gLLxUGfTNRJw3wV3l6FdVhIf0J+Bz4NaN1j3tqNEzu21z3Ry0VDGgA2jfXeSFw6MJUvmuvgugbMA60btZeqk636LHIHx669e/Hiny3tMmz87/338X8fOusw0qmrrr4aSZf4fqyNNeiSL7R5sfSXHB9TtYKuIB/voqJCxMQ0Lg8UxUMPPYQVK1z7QsjdWVJ1aCXVdnISMUlJ0iOPPGKMSfAjVXtF+te/J7uLSyDI93XSpEm499578cMPP+gqRqnekcffTJgwQZ/wasJ8v3lMPJOQVyn1kKpNqbY12/bIc0SXfr8UyR7Bv7SHcxJ0paSk6G4grrvuukrrkySfSb6zR9R6Zdh6l6Q1eDffY5K2eP4GXRJwLVQB195Fn+BkdYHBryrQUaSCXZZc/hPtxHZYVVSCdirwGvLii4ENvIpyEHV0MkqOfIGo2L4VQZfpyGsq8s9CydHv0Kjp2ShrcgPQxP+mHSbZTxJISdAlwZcEXFKCZd79KUGZ/K3LcZfgSx7N5O9+DcTfhfQfFak+U1MpZY5W39cI9b0oLkJRYT725+1D82ZNsEH9WJPPKN9N6TBYV5UFANcd3HVLO7YNObn6b7x9x2P1uqV5jrR1PKDW6/bXJiuX5A/z5GImkzns7VVOxGaxsAxXhyzLmoT8ajWHra/z588vH6+tdQtz2Ntrddfdqom0k4pBU5WaNWmsTjBqWAVddqlJbLR6NfNEu9pUSZ1y4+jyxrzNmsSimeRR+VuqZVdFLhzyeQOZ/A2gZB+aFyx/U03Juq3JZA57e5XtrNZ3TZ0g5M6+RYsWlSe5mEhfT2Y688wzdXWdNck0ax55j3UZP/64TD6csRLfqnM+sCOlAlLVIxdHKYmQqhnZF3KnmVTtBYLsb2uyknHZ/9KNhlQzyeNgpLNS6V5g2YqV6NWrp8/3+2L3KCvPZUmy+06Wl3wZ8635/SUB1+d33IE9iz7F6ervu4UKuFqo6dL72ZHO7XH4xPZ6WKa12LoXp8dEY/cXn+Jzjw5UayoiOh6lzR5EVNPzEBHV1phq0eTP6kLYHZFR7dTff6H6mldRWu+AfJdk/0lgJVWynt1tmG0a5fsWiBs3qvN30bnziWjTqiVK1AX/wN5dyNu9HflHDuhuE+JO6qbbFUnzAQnwZHvk+xmI3vMF1x3cdcszYHv1jFcB3LE4mPc7tm/5Gds3/4x9u3ehWVObB17724ZDfl3IB7aeOIT15GF9lZOfnIAlspT36elRjbBuzWq/S5s81y077YknnsBFF12kiwrPPfdcPU3u2PrPf/6DCy64QP8qDcS65deTBHjyBy1/6L1799YXFLm7TH55ywle7VtdvSO/mv/0pz/p+dVd9zOfHELbdurkme+6eDduVIam3rpDUEdULgbyTw+r/I3UibigqAhH8ovViS5aDobOKv2kHNz/O8Zd7LtzyhnvZWHWzJnGmEv63+/WJzKTZxBljv/33Xex4PMFeliegda3j+uxPtdcdy2GXXqpHvbGWtJlOnj4kG6XIcu3rtMc10n9spBuEuS7JqSRo1mlUJ2SrmB/z+Wp+E2bNtEBcqBkZ/+kvqfSkD1fL9uT5y/66pwPPMn2Swmd7A9p1H/33Xfr6S+//LL+25TpDzzwAFq18l297Yv8vck+9wxcJJnkgiwdtUrJiJwHpM3ct98vRSd14pXvhRyj8uOk3vfdd9+rv92qS7qukI5PVXBrLekyk3weSfINlfXrIEuqdo3pZj5hvppWr1mDzg7bdEnQNF8FT3sXfoJzo6PRZEtFleKubp1wx5F8qVvBSyrQ6rCpouf5o11PwBfq+LQfMhQXVPsOxsr032TpPkQdfgzFMVeqqOdMt+2LzJ+O0oNTENW4L8qa3Y2yRn8w5vhv69at+tX8e5NjKfvWJCUZ0mBeSjDkmuC5n52oyd/FpVsuxVdHvtLDyc2T8c4J7+ClfS/h/l3362kir5frcUlyTpImBF3UuUrWIX8v8nfhpMTViR+O/oDPD3+O5pHNcVHzixAXU9E/Xm2se+aBmbikxSWIkRssbHx66FOc2eRMxBbF1up2+1Lb+9xO1H333fewMay/nGb1hdNfBFJNIX9knic84TksfxRy8pFgRDpF3LlTRZ/7D2Drjp3o1PEYfWHzh+e6JaiRzy8nQKlikdvoJeCRX/wyXV5l/YFY9xtvvIEhQ4boi7+sS/645ReW9IMkd2rJQZOLitxZIyUQ0p7l+OOPr/a6V20rQYvmsYhqFImY6Aj9GKAWzeTOwIhKqbGZVEAlvc/LtKioMpQUl6iAIwaxjaOMvGq++lEYVVqI07tWrm6ykgv26lWryi9OkhLPHqhLDZYvW+b6haCORVN1DOQEaCb5Tsl+2K7yxaiTfn5BPlq2aKHfn3DKKejZq5exBntr1C8R6yNk5DjffMstOpiVJHcfWZN0TyBJHisjwVWsuiDLw4h/3b4NnY5zFR3LcZLvouQ/Rv2ROVGT7/kOdZx/270bm7b+ihOP7+ToeMtjJOQWZ1mWVJ3Ifp41a5a+40+SlIJJkuo6M5nTzDzLly/X30WphpTgLS9vnzoGsXpbPEsDhKxDOjE128dU53xgkl+QckGUvz+5QMlypG2ZGaTLj5SMjAzdj5e075LPKD+O5NenuS+daqS2x9qWyzPJd00a7svxkOqnrl274PulS9GuTdvy7ZW/YfmhJPtcTsQ71HeuUyfjEQI+yA8KqS6V75u5PiHfEzMJ+VsoD7jUq2e1omeSfea0jclCFcj+8uab+FOHdmizeYfuBlDSoZM649b8Ilx6cj90bt0OL+7di+Ht2qBV3gE9v5l67dKhPdb+uhm7NuSim/qxWh2yf82gR74zerikEQrwR5SUxqrhxuXz5TWqbK36cq1AVMxJKIm5Xm1v9X9YSMAtgb35fZbSVPP8JOuSefLdks5Szen6R5lK5r6uSk3+Lj48+CGGNhuKfx//b1za4lI0i2yGXo174S+t/4Kzm52t59/b/l6dV7ZBSqrlh7sEiXJOle2THwtyDnPyWb1ZenQp7tp5F0a2Gqm+e5FYcmQJzm56tjE38Ou+bcdteGrvUxjbdqxt0HXfrvvw6O5HcU2ra9ChcYda2+6q1OY+96bSTxuJ3P39Vas/mMeHs35YGZY/ADmZ7d69B6vUr/0t6oQsbVaOqC9yu1Ytqt2IzbpuKXWSC4r8gck2SKPlxMREffGVk19BQWHA1i2/lt9++23M/eQT/PGPf9TrkpKv5GRXGyU5EctBlF9ecvCkt+SarLtlUxVgxUaqQCsCrZpLikSrZlFo7ZFkWqtmrnmu10g0i1VfrogSdfJprN4XhZZqGS3VdHmNVcGbLLsqcrKSk6Y1yYlLArFZH8zUae1a1zPNJK+c7KTtjHkRk4BPkpRAme+XfP6S4y3v+2nlT5j78Rydtm/brqd5JvMbKO+JbuQ7qHTC+l0z6WkGGbZ+z7NXrUZO7s/qs8gzuArQ6Zj2jo+3LGfPnt/1r2tJEjy9qy7w999/v07jx4/XJUQPPvigbhclSYYlyXSZL+mdd97R73Ut54A+mZSWOu+7zN/zgXwnHn30UV2ynJWVpUuWpBpPLk7y48MkP5DOPvts3Uu9fEemT5+OGTNm6HZe8t3xh/sRsSf7Uy6WzZs3w+cLv0BbdRykxFGOlfxtynPTpLG13GWZ+/MvKmiWzj6qJt8z2WYr8zshr9bh8sBQT3Ex80iSZcnnlOS5TF+2f/st2jdvgnZ79+s+mCUVxHXFnUcLkdwnAX9Vx+GemTMxuHs80opKUNC9S3m+dnv3oW2ZCvK++06N+Uc+pxwrSbJvzWHZp5IKCqOQX9hCD8uPEAladOBSsg2NYv+IgrJEfWdZdc4Fsn9k/XLRlB8UEljJeV7OOeZnkVe5FkggJsOSZF3yPlmfddhfTv8uVJiNLjFd0Dm6Mzo0crWbbRHZQo9LauZx56Zcw26//Xb9A0SCASlNk9oB+dEun7W6fsj/ARc0u0CXtl3T8hrc1/4+Y06FQK77uY7PoXdMb2PM5dxN5+JQqeuO94nHTMSApgP0sKit7XYi2Ot2C7qkeE1SdciJRE4cVtZx+fDyS1JObCd0OgEXnH8+DhccVUFBMxyvgpOasK5b/hjlJC9tuIYNG6Zf5Ves/MFJaUCg1i0XiptvvhmH1DbJCUUuKvJLWkq+zM9inkglr1zwarLuVk2kDYg6UTZWgVJjKe0CoqOk2rByio4qU0FGGWJUiopQJ6eyUsQ2lbZekfq91iT1z7LsqsiDqovlpGVJsq/1dCOIksbfZqBlTXLSNfNIY3Tz/RKM+Mu8GP22a5e+QEqS75W/pJStOqzfNZO37/lxxx2LS5KTUKSCnGPatPX7uyYlfBIQSBLyHTvnnEGYNetjzJ07TwX50jnqV1i06BudZFimyTzJI3nNX+KyDGlEvGOHVD25f35v/D0fyLGR0isJ8CSYknWarxIIekpLS9MXRwnMZJ9JabFclCdOnOjXyc7Jt0h+dDVSgfeW7TvQt3dvXc0q6zBLqaV0VH48SVOBHTu34xwVEDrh7YJt/U7IcHlSn8Nt3EiyH2QfSFC8ceMvOOYY3ze2WA1//30cOOY4fH1SV5Sq88r+uO6YeLQAf+zVB3epgEuvU6X7Z81Cj67d8XhhEfaf1A2lKhj5ultnbI2Iwp9UwOsP2XeSZPvl1QxqJMm2mAGWGYCZ0yJKN6FR9DE4UhyHoxim3+tv8KPPOyqvmSTgkuXL91vOxRXnI6PUzRg212NOsy5DklP+/F3c1vY2DGk6xBhzd0KjE/Dcsc8ZYxXku3rjjTfqi/+ll16q/z7kb2jhwoV6O6tDStlmH5qNa369Bm/kvYGisiJjjrtArVtK9KI8SjCvaHkFGulOK9U+jGiKRhHuP/ZrY7udCua6K11tpVjbvB3WEXXCsJITiJWMyxdavvTyaBJpyNq2XVv8sHw5pENNaexWbTbruuGGG/SOk+BHSp0kgpUT2UUXXaynB2rdrdQvKLkTTW4XlzpgqQuW0i9xySWX6OhZqr86d+6str9MVy3WZN0tYqNQZPbzqa4y0sHpvkMFlVKepMMF2K9eD6hXeco5ItWXW+8r9/0lZJmy7KpI6UiRnLwsSU5eRfJIEzUsSU6ungGXpIL8gvI80u2CvPfc884LaANef21VQZFfbL5rVp7fc/k7ate2Hb778Qe0aBrr9/F2VZsUqeBtm06HD7t+wcfH90C3btI+rauuJpPhrl076+Qads2T4bi4eP0eea+5HBlv3Ni+jYUdf84H8ktRqtfl4vqvf/1Lr0t+MZ5zzjm2j/qRi+SoUaP036f8YJkyZYoulZCTnbSjcapEfZ+kpFn+HuV98nklmcMyfdWatVibk4vzBw/WgahcuOVzyo8EqXqUYyfVoV+pX7cXGn/HTkjfbY7I90Ul67dGvjOSZD9JCb0EDxJo5+2XB4FLk3dnmqtg/orZs7Fh/2Es7N4Z/1aBx7E9e+NuFYxZ22nJ8MSPPkKT7nF4S2379/1OxoYDR/R7ZRlOyb6zS7IPzeBJnxvUdsk+louWDJeV/I6m0Vtx8GgnHC67uvx91mU6Yfc++XsRUoIq6zIDK33OUcNmPvls5nutzPlOOf27GNR0kK5OtNMmqg1GtrR/0Lh8L6Q5jHQRI9cY+fEi106pTTE7efWHBHhLuy3F3e3uxo/5PyJ1R6oxp7JAr9v017Z/RWxkxd3Ydmpr3U4Ea91uQZecgCQwCTT5MssXX36FtGzTBj9v3ozmTZqoC0PNn7nmSRrEyZP+TzvtNL0TJdiRgEhOaGcNHBiwdcfHx+uI2GxwJ3+EZkePEmxJsbdUK0p1kvyhn9SjR43W3bF1lDppluFwvvS0Lg8PjUB+caT3VBKJoyVROp88NuiIftK7eq9HilLxliy7KlJ0by3lkiQBlZzUTMUqgvMMuCRZS7r0yVC9d6vaF/5UcwWKlGgIKY2R70cgWb/nTZo2Qe7mTWjVrHm1jrfcZXreeYNVAH+xThK0yXduyJBz0b59W5Xa6dd27dq4Jes8ySvvkfeay5FlOm2c7+/5QIIcOcby9yelR3Ls5aJr7SfM05VXXqkvlPK+2eriL7825T3SFswpea/Zxs9M0saqf//++jxwxhln4OzEARg+LFl3VSHkWJnfSfmVu079sv36m29wmfqb9ocEfLKPpMNXaccmSU7aZtvOlStX6nZk8k3zDLhM8n2Rz/PlV1/q80bPHv7d1CPMwGttm2bocM4g/N0j4DLJtAdmzUL7swdhze8H/A64hHx2zyT7UL5XZpLtkB+eul1lbGPExvyOmKitOJAfj/yyM1WeGP0eSdZlOmHNa65bXmUfyrCsV9Yvgawk+Tzmusy85vtNdtO88efv4h97/qHbbdnZWLgRV/16lTFmT24Kkzax0n5Y2j5KUP7pp5/qHzP+2Fq0VbflOr3J6RjffjxW5LvfnGQnUOs2yfaWlDk75wd63f6o7XW7NaQX8ivQrJJwQr7U6tte/qU1v7ie4/JrRxqPF5aUoUPrVjjxRP8a5toJpXWffvrpbuuVJAK17qKj+7H/998QcXQvogv3BSw1x350blWK5k1dvxS96dW7N3784UfsVMGlBJGS/nBaf93A9JxBgzAgMRHt2rfXFxCzSsGsVtj26zbs3L5dl2xJj+jSy7p8keXOwVOr6JF8j/qlIV98q1NOPUUvO1YtRx6cfMIJx+sSEk+/bPxFl5qIfXl5OFYF33JBl0bcp59xOk6Kiyv/hVwVf75r+/L243BhMU5QF/hAfNeElNbIOqTUSIJ5uZBJYGa9mEiSaXLDQnS068IjpU8SCEobw6p4NhgW/pwPJOAwT1Jy0pKbCKT9mbUtlyf5zNLu8oMPPtAXSwlSZB9KKZhsa3XJcuViaz0+ZjJJiYhcQHft2auC8H0Yer7zEi7TK6+8oveXBJxy84I0sJYk2yFJbmaQH35yg4B8Jlm/+Wp+Fnn/N4u/QdcuXXW+6opR++z0a27AycMuddtOTzKvz7BhOPXmm/V7qsPcBmFui0wz97srGc/aUymqUStERndRry3091JSRT5XkCbvdcJcn3XYXL+o/DmMxy5Zhs1x66s3Nfm7ePn3l9G2UVuc0eQMY0qFX4t/xVN7nkJ6u3Rjij2pLZG/KdlHUvoi2ypdwdid87z5z/7/YPxv47GmcA0y9mbgtja3oV9s1U+DqO66x+8ajyX5S7CjeAf6xvZFy8iW6JbTDXe0uwOxEbF4Ys8TWHh4oQ4Gu8d0L2/vZhWI7a6u2lx3pS4jhJyInJJfePKltZIPaCW/QAqLirHv4CH0PKkbOhq/NmuqIa1b/uDll7MZRASCfF65m0xKf5wEH/IQ5QkPPKh/scuX8fQz/4gmjWN1laGUWkn7rhL1KtttJQ3dN/3yix7+PW8fOrRrr4OYy4b/CXfceaee7os8fmjxN4uNMeC6P19vDPm24LPPdYmL2KjWf6raTtnmXb/tQlJyMi6//HI9zwl/jvdeFWT3jj8pIN81CW4lOJAgRu7Gve2223R1thNSZTdt2jScd955ugRY9rmvi4sEDp63xgun5wMJhG+66Sb06tVL9wh9/vnn6+pDJ+RB3dKNhLxXvucvvviiDi6rS7ZTAh7rMfM8XlI1eODQEbRs1hSnqkC+OuT4SNWmyboOc1gac0ujfflM5v6XefJ9kZI2aT8ibcmkVCgcyXaYP8TMYZN5LjD3hbxKMveFuT+qS5ZvTeY0b8z1W1NVavJ3ccmWS5Cdn40xbccgPiZet2uSOwml64af8n/CnENzyruMqIqUrs2bNw+DBw+u1uOzfiv+DVuKtuDE6BPRsZGzu7ZN/q57uzx/09A+qr2+g1GmHdtI/fhQ/3YW74T6xuj5baPa6kDMm5pud03Uxrpr3E8XNSxyYRVyMZOGv9Z+uryRk6D5K1EuxlLlJaRkw+lJV/rqknp1WZYEfE5OlroqU13U5CLw2eefIeniJERGReoLu1wInSyjrsnnl6BLkuw7KbmS4Em2zfMiJ/tStkle5fjIe+TXuOxveY8k2Xfe2F1c/D0fyOeVkgEJDGUf+0OqI81btZ2WQIYD+e5bAxErOU7yd1AfeQY/wfx7C+S6a/J3IX1ySf9YMerfqbGn6ob1Cw4vwIz9M1AaUaqn/+u4fxm5qyaBnhn0BRvXHRg1fvYiEdUPnhcXwfMBNXT8u6BAqvGzF4mofrC7uBA1dPy7oECqWYU6ERERETnCoIuIiIgoCCI+/fRTVi8SERER1TK26SKisCb9gVHokM6oicgeS7qIKKzIQ2mtJOiSjgup7km/eAy6iLzTQVe3bt2MUSKi0CUPOGfQFboYdBH5xob0REREREHAoIuIGpwxt9+O0bfciq+/X4HN2/Zgk0qbt+/Blu17sXXnXmzb9Tt27v4dv+3Zh6XLV+q84++733g3EVH1MOgioganpLhEPxqmTevWiIxpjCiVIqMlxSCiUWNERMWgVKWyqGi0bNFS55XHXoWjPa++gPWDTsW6s3o5SpJX3kNEgcc2XURUpeuu/7Mx5O7t/7xlDAVHoNp03fyXm/TruAcmoudJXfWwFqH/Q2lpGUrLylCiXjfkbkTG00/oZyS+NO1lV74wIkHUMdddj4ho78/dtCorLsJv/3kbPb9caUxxjm26iHwL75KuzdORkjIdm41RIgp9i778Es888yyKioqNKdAP537m2efw448/GlNqlzwwXFJRcQl+3b2/PG3dtR9bVNr6mytt27MfhUWuvJLCUVlhgQ64ig785ChFNIrW7yGiwKscdEkgo3419piwyJjgsmiCmuYrwPEnADLXYUkeqyOiECOlWtZUXWvXrMWKlSsxOWOyDrwk4HruuX9ixYoVWLZ8uZGrdhUXF+tUUFiM6OgoV2oUhRjjtZFK+jUqSgddOn9JRZBY63IzkJiYgVxjtEp+5I9q2d4YqmA3jYgCz76kq99VuGr9i5huRlAqSHpxfT/0M0ZtdRmFrKxR6GKMVqnfeMzfsEEXR2+YPx7rb2XgRRRqpFrRrFo0h71VNTo1evStGDgwEStX/oR/Tv4nnnnmOWSvWoVzzjkHN9/kqvarbWbJVb4K+nb8fsiV9rnSzn0HsUu97tp3GL/lHUZ+cZHOW1pSary7hqwBkrfhWhLVsgPaXPcomg++xpgCPSzTZB4R1S4v1Ysn4YJkYM5CV9S16NXH0TNZTTBsnp5iKaVKcQVnZkmX8TpdSsaclmJJwCaB14tGSZlbSdgEVLx9ESaUT1fL/d6YLBZNUNOMz0JEISsyMhK3paZiwICz8NNP2Vi9ZrUKws7G6Ftv0fOCoaS4WKetW7Zgc+4GnTblGCk3B5t+liTDG7Bl85by/AEXl4bFi9MQZ4zWtpIDu3H0pwVo8ocLdbDV7OyRejh/zVd6HhHVLq9nuK6j7kDPx1/FIl3KNR63DDFmKF1GZblKqCS90hOPv+oRVa14HD9fYM6/Cu+ZwZQvXbqh54qfsUkCq6EqyHvF9f7549fjVh21bcb0lFsBY7qkSX90vVUHaXpWFkY5LmojIifsqhVrWtolJUeHDh4yxoCDB/eraQEqSXKgWK1f0ow3MvHmS5N1euvlivQfld6eloF3Mp/Hh++8Xp6/Es/SKXPceM1IjdB3PkpKnaszIOOGdCxZko54NS3xwQeM93tMn24JgGRZxjIiIhKRYa7MOj1evdeYXJXD37yPI0s/1sFW09OTcXT5PBxa9K4xl4hqk4+flYNxwVXv4VYJgO7wqDa0lkTd+h6w/hf3oKqfCtIGG8NdT/JdLelp8y9Yb3l/lyHJ6PfeZyr4W4g5sCzXpAK8oUN/xh0bJqlPTETBYA3A/GW24TKrFBMTB+gSL7ONVzCYJVf+Jr+oAGrt8DKUlak0ZzQyJ0lwFYe0NydjwIDJyFHTF48yq/S8TZ+L1Pi1mCDLkJSTgqwbZDkyPR0Jc8zp6r3GOxxRgZo7z3Eiqg0+y/IH3zJeBUxX4QJrNCMB19A5SJ5vlDjNlzwBoIOtk2C5edsZFaC9Ul4aRkShrLS0FM/9c3J5wCVVirffdlt5G6+M5583ctauYhX4menue8ZhwsMPVUr3jr8fO3ftxObNm3HwwAGd1y8qgBqXZAzH9/YvKDLlrkc2MpFsLdFashY5Mt26fD9IlaJZwmWWeDUffLWaw8CLqLb5bkAhba3sSpD6JWOIUfS1eeEcrHAN1oBRpSglarqa8XGYNZZ6+VddgMFdhiAZFdOtuo7Kwiu4FSls0EUUcNYG9DWtVpQ2W/37/6E84JJxs43X2WefjYGJ1QpN/FZQWFieJBC89+/jdJJSOEmHDx/WKbpRNGIaN0aBmiZ564RR+qVLtHSahmrEWpo0lm+SMKS8SlGqGmU4ts85vIORKAj8b7WqArE7ej6OoUb14rife1avpEuqBc0qyh4v4qT5GzBJR3eDMcm4m1HmDX28J17RM7pg1DMV0yVZG9IPnvQKej4+lIEXUQBZ23JZU01cOHSoCrJGuzWal+Hbb0tFYmKiMaV2FRYUlCcJZKS3eUmHDh3C77//Xp4KVaBVpFOBfrUlJU/GYO7sLGdtqyzvceM5Pa4nEpak4xndHsxCT8/CbKN9l9P1SmP5fW9PdGvDJcMyjQ3piWofe6QnorARqB7pzz5rgC7REg8+/BAeenCCbud07/336UDLTNOmvqSrFRtFN0Krlq2w6Juv9XuscjMSEZ/uCnkGjB4NZPfGm28CN9wAvGnemSiN3i3jc1MjkJyp8j8wHljQwfd0ea+1obyUfMn0uamIkMwyyVyvuT4LebTPsaNTdcenTkS3PAU7M6eh17frjCnOSZMT9khP5B2DLiIKG4EKuhYt/AJ/S0vTVYvp4/6O6OhoHWQdOXKkPOAS01/7t+4YVTpJbd26tQ66GjVy9jidUKEfA3T9dbqneSf4GCCi2sOgi4jCRqCCLrHoiy8QqYKp2NhYNGvWTFczCvNV7NmzB/v379eN2CXokrZoMhxO9rz2Iva+ken40T4RMY3RblQq2t80xpjiHIMuIt900GUMExGFvEAFXRR4DLqIfIvIy8tj0EVEYYtBV+hg0EXkm/93LxIRERGR3wJe0iW/OomIAs1bCQpLukIHS7qIfKuVoIsnQCIKJF8Xc55zQoccJyLyrjzoCmQJFU+ARBRIDLqIqD5wC7oCUSzMEyARBZqToGvSk8F5biMRUXUx6CKikOc06HppylO4O/0WYw4w4Mz+SBzQ3xir0KnLWdi++VtjzDvms8d89pjPHvNVYNBFRCHPadDVNGov7k6rCLqIiEIJu4wgIiIiCgIGXURERERBwKCLiOoNacNFRBSqGHQRUb1h12ieiChUMOgiIiIiCgIGXURERERBUKddRjzwwAPGEFF4euyxx4whdx988IExRN5cfvnlxlDVnHYZMeHuEcZUIqLQ4zDo2oipQ/tjwz15yBjqGh6/FDjj8WWYP6a7kcfF36DL20WLKNT5+v5K0HX66acbY+Tphx9+YNBFRA2Ow+rFn7Fh6ShcMlQNzp+C8X1nIC9vBvqOn4L5rgxERHVOeoJ2gvnsMZ895rPHfPZ85fO7Tdf8j6fjjB4nqaGT0OOM1cjZ6JpORFTXnDyiQzCfPeazx3z2mM+er3wOg66hyJgBjGzdGiOnj8I9UqUoJV4YgYvdaxeJiIiIyIbzkq6hGcjLy1MpQ4Vgxvj8MWDMRURERFQ1h0HXfKS1TvNovyUN6j2nhYE9X2Lq1C+xxxglqlc2vYYRI17DJmOUiIhCh99tutwFsE2XBEMPP4yHjTT1yxAIi9b+r/zz6PS/tcaMMMNAs35aeD+6dOlSke5faMwgIqJQVEXQJaVZrdG69UhMV/+kTVfr8tQf4/veA48eI6ppLf73wiqcfKcZ4FyFjrt3G/Pqxp4vp+Lh94CrLEHXVVijPilR3dv02gh0GQVM37wZm400HfPAsIuIKHTVeeeorn6OVND18Br0efgK9HbNqiClNC8swG965Bicd+cYDGrvCopeWOCaWj4dKm8WcHLHBViQnaACJlmeLPs9ZBs5Ey48D7tWmHmMaVc9jCvcVrwHX8qCUlzrqsTtMxnrkWlZu9FRrSlbzUi46k50WPgC5CPq5Xdwn6/faa7X6/K8fE67feK27XqGkV+2xfU5xDHn3YkUZFXsu2POw51jBsFuM8m3uuunaxNeG5EOTJ6Jm7sak0xSvahn3YyuMjz4USzTM/pj4iJXfgnYBj/qmlo+Ha73Dev1KB5951oVzD2BIUaO2sB+uoioIXJYvegq8UqzNuCan4bWQ6eqOYHQG30SsvFepSo8KQHbjSFmadOdJ2NVlquarP2gMeUlUA9f1RELFhnv+20BdveR6RJwScChi6vK814h8WB5HnlvArIXelS97VmDVb91RAfbSEQ+0wJ0NJZ553m78J75mX/bhQ4pxjLfk6DNY/nmfHO97/1PLc3X8uw+p/d9Yp+/PQalnIdjJLhS08f0WYOsBR3VLnHlu6rjbtRtmSL5bdPnmL2sF7p7BlxuFuL+wbkYa5aELRqG2emutl5db55ZXjq2eXovPDrNKB9b9ihyL5TptRtwERE1VA6DLkvnqKahY/E4ZuKTALXp6n2FESyooEC/SuCxZzd2wQjGJEnpzm9GkCClPeb097LVz93drsBDBReDzVIrCZ5gGTdZ83TogGOMQTfHdEAHY9CNfCbL+9v3ORnHZBvVjsecjD4SqMkyrcMyT5jTRO8+SFBbt3u9r+XZfE5f+8TJdrXvoEvb3ntYAj7Z7zalixT6+sehmzFoa9NGrMM7GGW295ISr2W5+EXPew0jzOmj3gHWbXQ1vO8/EamMtoiIao3DoEs6Qp2Oj60lXRs/wcylfREf6D4jel+hgomrkGAJPKSERgcYOhlVb9Y2YHeeZx9gVJcEJr+twhq34q8QYrdPjFlV640r9Hv6YI1+dQVfFEa6dkevZbPxeVW3KKogapFZoqXTExiiqxxnY9giY9qiiehvZK8Pwrmnaivms8d89pjPXijmcxh0dceY+bp31IqG9P1nYsQyo8+umpIgylqtqEuTOqCDDn4WwKw5dGMpNdqzZpXRvslD+z44GV7e71NvDD4PWPCCe0Cy9n9q3OMz6XUn9PG/tGjtGmTLNvT0c3m+9okvlhLC/+k7QyX4uhPnHbMLu0M1uCQvhiB1IvDo4PvdGs4vvN8yrgOzR2HWHLrpPwznG1WTmz6fbbT5qh/CuadqK+azx3z2mM9eKOZzGHSJocjQnaOaaX6A7lxUJDja9V5FyY2UYqVI424VGNx5Hna9Z0yXJF0ftB+EIR0X4AVjWtbujl5Kulztmazv/98GY1YVpM2Ybl9lvE/Se5BgyP0zvSDto9xb4XungiXzM+s7I3UDdn+X52WfGHNtyf4y2sxNXdNIoknjvS9g1ckp9jcLUEiTdlmLJq6rqD5UaRQutLTFGoInFk3EulEV87tI/11db8bYXo9isDEtPbdXvSrpIiIKZc7vXtw4FUP7j8dSnIHHl6mA6+c0tH66B5Z59EpfvbsXGwApzdM3RPJOwfqi7u5eDH+8e5GIGiLndy+mSnViHmaMMiYFuCE9ERERUX3mx92LtdBoviFpPwhjWMpFRETUYDkMuobiklEedy/On4LxGIGLGYgRERERVcmPHumlg9T+GL/UGMUozMirfPeiv226iMIZ23RVD9t0EVFDVKePASKqryToIt8YdBFRQ1NF0DUfaa0/xiV5l+Bj/dBrL0bNQF6Gq8yLQRcRBRqDLiKqD6po0yV9c5lViFKdaO2ny0wzMGr6xyo8IyKqW+HcU7UV89ljPnvMZy8U87F6kYhCHku6iKg+8KNHeqlqtDwGqPVQTGUfXURERESOOO8cdehIYIalWnHZCMzsn8ZqRSIiIiIH/OgcdRQusfYP0f1ijDhjNXJY2kVERERUJYdtulx9dG24Jw/GTYrGsxg34B6Pvrr8adPF2+qJGjan3UawTRcR1Qd+NKSXNl3WbiNq3jkqO5Akarj86SCVQRcR1Qd+NKSX7iMsbbpsAi4iIiIisucw6JJSLjaaJyIiIqouh0HXUIx9fLX7A6+JiIiIyDHHJV1Txi/F9JHWfroksfSLiEJHOPdUbcV89pjPHvPZC8V8ddojvdeG9AvvR5dR7+jBa6dvxhPdXsOIdGDyzJvRVU8lonDHhvRE1NBUXdIlXUMEtWRrIe4ftQ4TF23G5kUTsW7Ka9hkzGlQNqlAc0QD3XYiIqJ6qIqgayOmpo5H3xnGHYszgJFptRx2bdqIdeiF7lKk1fVmzGTpFlFY+Omnn4yhynzNIyJqKKoIujx6oh96CUZN/7gWS7sW4v7Bj2IZ3sGoLl3QJflWJHuW9kgJkMzTaQResy0KUsspz9MF9y9Uk9zed7/KYUwbcT/uH2Hm24TXyocrzy+fLrwu7zW8dn9V+Y3P7TW/+hzpaj8sexSD1bQRKvOm10aU5+nCEjAKMYcOHcJbb72FefPmGVMqyDSZJ3mIiBoyhw3pg2UInlg0Ef37T8SizZuxeepZaGzMcZGgLBdjZZ6kRcMwO90zAJHAaRQw3cij0hNDXMFcL2PaoonrMMqMhpatQ9xkNX36tXhnlDQcM4bNak1zvixL55EAy9fyHkXuhZb8ejk+Prdt/q64eXLFfph5/udIf7SX2iRXvum9cvGLXhlRaGjevDkeeughzJ8/3y3wkmGZJvMkDxFRQ+Yg6JqOkeVtuqRHeut4kO9e1FWPRimYJCkVW+YRgGz6HLMxEalDjHEh71MBjDmt6/nD0P+dea7Sqf7DcL7UX3aLU0GOZVjmCXOaGHIhrlWfYOPXvpZnWbe5HF+f2y6/p67d0Uu/31WiNuSJJ1R4ShRaPAMvBlxERO6qCLo8e6H3THXQK71R+qNLhnQKkwCkRp97CJ7Q77kQ83TgZlRnEoUYa+DFgIuIyF2IVS9WQUp8lj2Kab4ijq7nYxg88ni8b9Pns7Hs2gv9D9YWzsM7UvJ1tp/Lc/K57ZilYZtew/26EZgEX4swsf86bGSjLgpRZuDFgIuIyF14BV0SdEg3EqOMajpJlRqVu9pDWfPcv9D9fYOlfdQTDkMuFSxJY3a9LGkqpu+m9Hd5Tj63h643Y+y1rirJEZ+rC9ejg433DsbsYZNxM2/ppBAmwRYDLiIid6HZOWqokLsL2SkrUa2ojc5RX5ryFLZv/taY4530GM18lTGfPeazx3z2fOVj0OULgy6iWsMe6YmooQmz6sUgY+esREREFCAMuoiIiIiCoM6rF4mo4WL1IhE1JHUadBEROcGgi4jqA1YvEhEREQUBgy4iIiKiIHALuqSYvqaJiIiIiCpzC7qkzURNExERERFVVqcN6aXhKxE1XBPuu8sY8o090ttjPnvMZ4/57AUzX50HXU5PukRUv/jz98+7F4moPqg3QVd+fgH279+P0tJSYwrZiYyMRKtWrRAb29iYQlQ3GHQRUUNTb+5eZMDljOwj2VdEREQUXPUm6GLA5Rz3FRERUfCxny4iIiKiIGDQRURERBQEDLqIiIiIgoBBFxEREVEQMOgiIiIiCgIGXURUb0hP0E4wnz3ms8d89pjPnq989aZz1B07dhpD5MRxxx1rDBHVDXaOSkQNjcOSrvlIa52m/m+1EVOHek4jIiIiIjs1rF5cjZyNxiAREREReVVF0CWlWa3RuvVITFf/RraWYTP1x/i+92BMdyMrEREREXlVRdDVHWPm5yEvz0vKGGrkIyIiIiJfnFcvzk+zlHKZiW26iIiIiJxwePeiNKR/Gj2Wza+yOrE+3b34y+at2LFrjzEWfFFRkeiX0BuNY2KMKYFTn+9ezMkBtm0zRupAVBRwxhlAbKwxgWzx7kUiamj8CLo+xiV5GaiqQrG+BF0ScA269HqUlJQYU+rGsAvPRebkfxhjgVNfgy4JuHr3hjpuxoQ6cuWVwIwZxgjZYtBFRA2Nw+rFoRj7+Gp83IDqEqWEywy4mjVtEvQUHd1Ir/vnTVv1KzkjJVxmwNW8efCTWSi5fr3rlYiIyOQw6JqPKeOXYvrIhtemSwKgnKXzg57uuytVr79N65b6lfwjAdDBg8FPjz3mWn+7dq5XCq5w7qnaivnsMZ895rMXivkcl3Rl2N296KC6kYgoWLZv/tYY8o357DGfPeazx3z2fOVzfvfixqkYqku3hmKqdIgqdzMOnQr2jUpERERUNYdB10ZMTZ2JEcvyMGOUMWnoWDyOmfiEURcRERFRlRwGXT9jw9K+iGfv80REFCIiYl6v00TkL8dtui4ZNd397sX5UzAeI3BxAw/EVq5ah9nzvsCc+Yuq7F7im++W6bzf/rDSmEJ1ad++fXj//fd1Onr0qDGViIiodjhu0zU0Yxl6PN0aI6cvxfj+rdF6JDBj/hg09MKv4pJi3Hb3RNyS9gDe+O9MY2pl2Ws24Opb0zE6/UHsy9tvTKW6lJOTg5EjR+q0d+9eYyoRhZuywr8ENRFVl/OG9JWew8g7F8Vpp56Ma68Ypoef/ter+G1P5Yt3aWkp7n3kGV0SlnTBIJ2IiIioYXEYdEmP9J59cm3E1KF89qJ44G+3o327Njhw8BAefeZFY2qFN/47CytWrUXLFs3x2AN/M6YSERFRQ+JHSZed1cjh3Yto1bIFJv79Tj088+P5uu2WadfuPXhqSqYevj8tFcce014PExERUcNSRdAlpVnSN9dITFf/Rrr1Rt8f4/veU+UDsENF/sbN2PrUFOTecS+2PDYZRzfkGnMC48rLLsLAM/ujrKwM4//xHIqKivX0h578ly4BO71fAv6c8ic9LdBqe9vq1Nq1QHo6cOmlwF//Cvz0kzGjHqjP21ZHwrmnaivms8d89pjPXijmqyLo8mzH5ZEywqNV1++z52H15Tdiz6y5KNrzO/bM/BhrRt6Mveo1kJ6c+HfExEQjRwVB0954F1988z0++uRz/RzFZx65B5GRNSxYtLH3o0+Dsm114u23gX79gDfekKcaA6+/Dpx2mus13L31Vv3dtjoUzj1VWzGfPeazx3z2QjGf8yhAeqB3K+mSFPptuvJ/2YxfHnwcbS44F6d8/gF6v/cK/rB4DtomX4DNjzyDoz9vMnLW3EldO2PMTdfq4YyX39CN58Wdt1yPnnHd9HAgybZtmvhEULYt6NatA266Cbj8cmDLFuD774E9e4BrrgFSU4E1a4yMYUi27ZZb6ue2ERGRVw6DrvlIG7kajy/zLO0K/TsYd7zyFsqKitHl0XsR1bSJnhYRE4MuD41DZLOmyHnlTfy0en2ltHHzVp3XX3el3oiunY/HkaP52LptB+K6dcFdo2805vrv0OEjtp9PUvbzmV63LaJJE+yZ8ZGeFpaeeAIoLAReecX19GoRGwu8/DLQsiV2PjoNixahUloZIl2gqT8P288nadN9L3nfNhnPdLUBJCKi+sWP+q7w7JH+wLc/6lczKDFFqotc4xM64ev/m4eLU26ulO55+Gkjp38aq6BnePIFxhgweOAfdZVjdUlwZff5JP13vrqCK7bbdmIn5G/dZkwJQwsWuF7NoMTUtCnQrRuWvrcR556LSiktzchXx1asqPzZzDT9wzauTHbb1l39kW3k3SlERPWRw6BrKMY+vtq9R/ow0U4FQJGNG6Pk8BFjiktpQYGufht4yYX4JOu1Sunph+8xcvpn52978Np/3jfGgDffm4kNNajmO6VvT9vPJ+m6Eclet00a1zc+/jhjShi6+mqgiQomDx40Jhik5/i1a/HHlG744gtUShkZRr46Js217D6fpFHXFXnfNql67NrVmEBERPWJ4+rFKeOXYvrI8GvT1WHkZSgrK8WmiU+hND9fTys9mo/NDz2FsqIixN9ynQ5sPFP3LifqvP6SOxcPHjqMcwf+EX16xuu7GKVtl9zVWB3NmzW1/XyS+t76Z5/b1v7KS/W0sHTrrdKrrOv1iBFUHj4MjB4NqKCy44O3YvBgVEqnnurKWtfUn4ft55PUdeKNPrdNTyei2vfJ/YgYs9AYIap9jku6MtzacoVPm67GKnjq+uj92P/5IqwYOAxrUm7GyvMvx75PFqDLw+PQtMdJRs6ak+cvfvL5V4ht3BhPTPi7Sn9DREQEvvtxJbJmzTFyBU4wty3oevQAXn0V+OADFTl3AE4/HejcGXjvPWDaNCAhwcgYhurzthERkVd+tOmSXumtpVxDMTVMmp60u/RC9P7fdF3yE92hvRq/CL3ffx3tR7ge3xMI0hfXA49N1sNpt92ILid2whl/SMBVwy/R0yY9NxX78g7o4UAKxrbVmeuvdzWOkjv9OnVyjS9f7rqrMdzV520jIiJbDoMu6SRVnnBtKeVaNgIz+4fPY4CanNQVne+/C/EvPqVfmwS4C4fHJ7+se5/vodZz+19c3UaIB+++HW1at8Tv+/bj0WcrPyIoEGp72+pUnz7A888DH33keu3b15hRD9TnbSOqS1JtGNPFlaT60KMace6YEcgw+5BeNQWJZt6Y+zHXmExUGxwGXT9jw9JRuMRal9j9Yow4g48BEt8v+wn/mfGRrkp8cuI43RmqqW2bVrg/7TY9LFWM3/4QIn0aENVD4dxTtRXz2XOar93V72D0R5tRVqjS1CHG1Mo6jZql/j8Mb0o+lXKeXYdJUyrf+FRf9gvz2QtmPodB10noccZ097sXN36CmUvDsxuJQJKG8uMeegqlpaVIGZ6Ms06v3JL72iuGof8pfXRj+vsefab8EUEUOnr37o1WrVrZpp49exq5KNSFc0/VVsxnz2m+vT9MRPZlrtKrRJsgyrR9+nDg5O6IM8bjevTCknW/GGMV6st+YT57wcznMOiSxwHNAKx3L/bfgHvCoCF9bZuS+aZ+7I+UaE38+x3GVHfy+B8pAYuKitLdR7z0+jvGHAoVhw4dwoEDB2yTzCOiMBJ3Mxbr0qvpSHj/c7g/jXYT1q8yBj3kbliHAb3qUfMMCjl+NKT3vIORAZe4PuUyLP3sf/hq9ru67ZY3J/eOxw+f/0/nvfpyV+N6qlv9+vXD5s2bq0zfy2N6iChszB1jttEahewrz0fcxamYvGqUMS0dWUY+7VVzehfErxuLxWPZTx7VniqDro1Th6L10KnwbLo1P601WqeFYW+pAdaxQ3scf1xHnwGXycx7TPt2xhSqSzExMejcuXOV6fjjjzfeQUThIGmq0Z5LJVcQ1RVpX5rTZmLxlzORJnWKFz9Rnk8nH+2/iAKhiqBrIz6ZCTw+bQw8m24NzZiBUdM/Dpu7F4mIiIjqUhVBl9y16K2xvDSu592LRERERE5UEXT5Cqx8BWREREREZFVF0NUdY+7pi/GVOkGV3ulHYvXjY9mYnoiIiMiBiLy8PP0k5l27dqFjx456YiUbp2Jo//FYaoyKUTPykGETcclyesiz5RyY9OTzmHDfXcZYzezYsdMYCozF3y/HlX/5q+7o9L67Uo2pwfPtDysw/4tvkPjHP+D91/9lTA2c44471hiqX774AhgyRBrJA489ZkwMokWLgNmzgXPPBRbyObo++fP3v2HDBq/nJ/Oco5d39whjKjUEETGv69eywr/o12Cpq/VS+HMWdPmhvgRd8pDqETfY97sVTGefdTqyXsswxgKnvgZdX30FDBpkjNSh888HPvvMGCFbtRF0vTTlKUcdGEqP0cxXWbjl8xb81Nf1esN89kIxH4MuLwoKC3VP89t3/mZMCb7IyCjccv2VuHDI2caUwKmvQVd+PjB6NLB1qzGhDkRFAWPHApddZkwgW7URdLGkq2FhSReFGwZdDVR9DboofDDooppi0EXhpsrOUYmIiIio5hh0ERFRWJOSp2Amoupi0EVEREQUBGzT1UCxTRfVNbbpIqKGhiVdREREREHAoIuIiIgoCBh0EREREQVBpLSHkCTM4ZokIqK6Ij1BO8F89pjPHvPZYz57vvJFrF+/vsxpw/dAY0P6usOG9FTX2JCeiBoaVi8SERERBQGDLiIiIqIgYNBFREREFAQMuoiIKCTlThmBiJguHul+zNVzFyJVjSdO2aTH3HnOc41XXlYXpH5iZHGzCRmDvC2bqPoYdBERUciZO6YL4v8OTF6zGWWFZlqEyWetw/pcI5OfBjy7yLKszch5tj8yLxuBDM/lfTIN6d8aw0QBxKCLiIhCS+5rmPSqBEmTkRZnTNO6Iu3LmR7Tqi8ueRgGYBmy5hglWmq9iVICdtk7rnGiAGPQRUREoSU3F0vUS0KPrq7xWla+nribsViXgk3HaNcUooBi0EVERKElLg4D1EvmRwtd47Vk7j8fVcHdtRh+sTGBqJYx6CKieiOce6q2avD54m7Gm8/2B14d5WrwPsYVfDlf3t+MIXdL/j7YrRF98qsxmLzmCSQZ870Jmf3iBfPZC8V8DLqIqN7YvtlZ62fmsxdK+eLGzqxo8N5rig6SduzYoV7Nuxe92775n8aQO8+G9HNuKUR6H293MFYIx/1nh/nsBTMfgy5//ZKJSy/NxC/GKIWg3AwkJmag/IYkz/G6EAqfgShMlQdgH12rxt7BpAB15ZA01dV2q7arMYlMDLqEBFKdjkMnI136SoBCqkAEaNZlhFPAJ0FGRAQijJQo92R7TIuISHX9YnWbbkwTc1MteVVKVXMqLUNSYuVbvkV9CHTqwzYQBcrFF+ogacm6irOgdZgo1DHowgLcM/AjXPbNDmzfLult9M4J0B9xt9H4v/8bjW7GaLUEYhlBNxep8VlIySlDWZmkOUhYm+OaNWAycvQ0leYAyRJQxKVhcc5kDNDzpun2FbkZiYhIBuaYeVWag1mugMy6DJ0W299CLstdnIYA3V1eN+rDNhAFSu5GZKuXAb3kjDgEw29RL6s2Vv5R8sk8ZKqXKu9+dFseUe1zEHTlIiMxAlLIYA5L6YIuuag3euOk8r+58/D00+dVLlVyG8/BS5eaJWPDUFEwpgI4S4nZPe8a7zHe+8o9Mn2cyuUjr56nmOsrX+8veGXsQ/jxx4cwUOUPWGlcrUlAz/JIIQnTptk0VU0ajtFL1qq96SkXs7OAyTmuAMyUNM19vEpupURr8Yzx3S0vGTPmZ6TKNFcJmw72PEvQKuWz/k0IFWTalbbJ+8xlxafrW+A163TrOqylfHqZatxYt2vRMs18n7F+u2URhbtP7rdpu7UJGTe57jacMNYVTCX9bSIGfPsobnCrblyIVOln66yJGOfzrsTKyyOqbQ6CrhysXTIaw+VqN/cZpCfMgS65SH/G4w8iXJ2Hi6//D66X4OceVzhUpR/XIn6Kq2Tsm0eAh8YaQdGl1wH/MUvMduBp6w0MKljKuVimP6PWWEVeW91w65RHcNppj+Ablf//bg3lX2ZJGD46E8kSCFREJpXkZkxC5oDeiDfGy+XORtYSa9DmYUk64ssDDZXKgxIflmSj95uukrGcyUD6DcZ71LLWDpfproAuLm2xUXqm0pwEpD9jfH63fHFImzAambOMeXNnIXP0BI/SNintS0fCHGNZUpJXPn0tJpjryElBlnyWuDRMUPvMXKRrmcMtQaYEerror/zzTUvysizjHURh6+JUTD7rHSRb7jSMiBmMdExETqHlbkPdr9Z0JLjdlTgKmbdMR9mXN1cqIXa/e9FmeWbnqLIMNWrm5+OAKFD8ql6cOysTA3rLJTIevQdkV/tRDKHmvKeN4Ofiua6Sp6qCr9MuwwVGzNPtgstw2o85+OWX+fgIj+D281zTK1HBUvm8qvLWA0nTjEBg+CxXYGQGX5aAKT4rBTneqs7sgjGTZ/Wik+q3ASkYZmSKG5aCAWYJm1rWuIrIxr3kKFmddrPXu4IYz3xSSpfpqu6Uv4vR+leJRe56ZHu+R8h0dTrXAakkKQEzPkvS8IpAbu6sbEy2vlkCUXh+Vu/LIgpv0vN8xV2G5ckmkJJqxmme+aYOMeaZbPJI8lxeeeeo7mkxS8IoQBwEXUmYJm1v1Ek9OXM0JsjPeSnxQsVFrN447xkVfL2N6/8z16gCpBpLmqYCoznlAYpbwOQtWIrriYQlWZgd7KBeAi5rW7Ty0ik7rtK8WXPnYpb6u/CMuXzyDBqNUjYkjcPkbNlPapnZDv++vC2LiIhCjrOSLn3htF4c1Hh9adwrbaasJVu/5GLtafGuhutSgqUnqsmffYQfjWErPf36JJzXbSguw0N4yUm05i2vg/VZ84QsCV6s1Yq61MdHyVUlSRgnVYDx1jZOKtZPdR+vrtzZWVjiVnVnYSkR0/lcg7aS1IfMTk5G9uRxlZflETiWL0tPT4dZa+kuDsNSsjErdRayU4Z5/AIfpn7meLzP57KIiCjUOAi6jAa9xpiLtC8JzAWwzkkAtPa68gbtneROximj0a3baEx5ZK2rrZdKY3N64zTjLdI+Sxqzy/SBH12Gb6ThvdHmau31xnJUusdr/2g2eX/xsT6T+kzpRvuzkG5ILwFCdrKryktXe2Uh5U0fQbouYZKqMal6dH2vpG1VzuTsiqozKWmFEShZqihdyUEDcs9qTbuG/dKuKqEi3w1rE3yUdCmynQMGIMW2SEpKiBNU4Oi5LDU9R4I187OrZGmTJlWf2ZlwlSi7iUPam+7vS53re1kNUTj3VG3FfPaYzx7z2QvFfBHr168v69GjhzFqR4KuWRjuVm0hQdcNwJtebtV3aNKTz2PCfXcZYzWzY8dOY4icOO64Y40hqjbpR2xSb+/t0sgnf/7+N2zYgI4dOxpj7nbt2gU5h+nl3T3CmEpEFHp8lHSZ3UMkI9PaWFeneKQneN6tVbciI/26J6BB474KDN2AfgIDLiIicsbH1TcOaYutDXQ9kl31TB1q1aoVgwkHZB/JvqKakzs0Q+zPgIiIQpiD6kVFqlHk9nk3ozGnhndKBbJ6kYjCC6sXiaihcVA0NBepydmYXP5IFzPx1nQiIiIipxzWx/noHZyIiIiIquQg6JI+k7IrHk9CRERERH5zVL34TPoSZFr7AtKpnvTTRURERBQEjkq6prm15WKbLiIiIiJ/OWvTVf4QYKPnb7mbsYH3fE1EoSece6q2Yj57zGeP+eyFYj4HXUZU9D7f85lErB8nvdCHXo/0RBRe2GUEETU0Dkq6crB2Ce9eJCIiIqoJR226ho/OdL97ce4zSEcKbJ/zS0RERESVOGrTlTQtB70nRSA5cwnS4yMQkQzM4UN+iWyVlpYiISEBs2bNMqYQERE5bUhf6TmMvHORyM7TTz+NCy64AKtWrUJhYaExlYiIyGnQJXcruvXRJYn9dFHDVFRUhI8++ggvvvgiZs6cif379xtzgJKSEiQmJhpj7iQQk7R371688sor+Ne//oVff/3VmEtERPWdg6CLz14kMkmA1b9/f9x111349NNPMW7cOJx66qnGXOD+++/HxIkTjTF3kyZNwhVXXIGTTz4ZGRkZePDBB3U15Lp164wcRERUnzmsXuTdi0Tiv//9L7Zt24Y1a9bo0q6cnBy88MILxtyqSUnY/PnzsXr1amzatAlt2rTBI488YswlIqL6zEHQxWcvEpmklPfw4cO6lEsCKKlqHzZsmDG3an/4wx90SZeQgOuqq67C119/rceJiKh+c1S9yGcvErlcd911GDhwIEaMGKGDJgm4Fi9ebMz1X6dOnbBv3z5jjGoqnHuqtmI+e8xnj/nshWI+RyVdfPYikUuLFi2wYMECXT345JNPYsuWLUhKSsKhQ4eMHP6RRvXt2rUzxqimtm/+1hjyjfnsMZ895rPHfPZ85XPYpmsuUt1KuYxnMBI1MPLIGdGnTx+MGTNG34V44MCB8un+kP68pC+vc88915hCRET1mYOgS56zKL2hWkq5clKQFc/qRWp45K7Diy66CK+99hpmzJiBhx9+WN+B2K1bNz1/2rRpuisJMXfuXEyZMgW//fabHhdffPEF7r33Xjz//PMYOnSobkwvdzESEVH95yDokmcvjsZwa11i3DCkDMjGepZ2UQNz0003oVevXjq4evzxx3WwNW/ePERGuv6UfvjhB52uvfZa3Tnqd999pxvem+Li4nQbrqysLHTo0EE3oo+PjzfmEhFRfeYg6IpH7wEez17MnY0sPgSbGiAJkKSU6vvvv8fy5csxdepUHHvsscZc6OrGt99+2y2ZpWDihBNOQGZmJr755hvd/YR5JyMREdV/DoIueQTQHMB692L8WkxgQ3oiIiIixyLWr19f1qNHD2M0uCY9+Twm3HeXMRZ6pONL6QizrkRFReGMM85AbGysMYWcCNXj9sYbb+g2kaNGjTKmNGz+/P1v2LABHTt2NMbcyU0Mcg7Ty7t7hDGViCj0OAu6cjOQGJ+OJcYoMBpzAlDSFcpBl1y4e/furTvArEtXXnmlbrBNzvC4hQ8GXUTU0Di7e/GGdCRY716U2sbEDDWn/pKSEvPC3bx586CnmJgYvW4VFOtXcobHjYiIQlX17l5MGofJyMLsBnD3olxIDx48GPT02GOP6fWz48zq4XFrmMK5p2or5rPHfPaYz14o5nMQdCVh+GjP7iEkEOPdi0QUWsK5p2or5rPHfPaYz14o5nMQdM3FrMwlSI+33L0YkYxM9S9ZD7OTVCIiIqKqOCrpsn/2opnYdQQRERFRVRwEXXLzYqKllMtMLOEiIiIicspR9eIz6QmYwxIuR7766is89NBD+nExksaNG4fXX39dP2OPQt/s2bPx6quvIj8/35hCREQUGNVsSE+etm7dikGDBun06KOP6kBL0rPPPquDL3kUzMCBA7F//37jHRRqioqK9LG69dZbcejQIWMqERFRYDiqXozvDY+G9KxetNq7dy8GDx6sS7mkn6Ybb7xRP5/v5Zdfxr333lv+fL3FixfrbgUotMiDqVeuXIk///nP2L17tzGViIgosFi9GADSN9Mvv/yCNm3aYMWKFZg+fTrGjh2L1NRUPPnkk8jOzsacOXPQvXt34x0UKv73v//px/X069cP7733njGViIgo8Fi9GAD/93//p1/lmXryCBo7SUlJWLZsGTp06GBMoVBwwgkn4LrrrsP111+PYcOGGVOJiIgCz1FJV+V+usKwenHtWiA9Hbj0UuCvfwV++smYUXNSvSiaNGmiX71p1aoVGjdubIwFUC1uW52r5W0788wz8dZbb+n0xBNPGFMpXIVzT9VWzGeP+ewxn71QzOeopMu+n64wql58+22gXz/gjTfk6bjA668Dp53meg2Azp0769ePPvpIN8YOKhUs1Oa21alaPm5U/4RzT9VWzGeP+ewxn71QzOeoIb2UdqW6lXIlIiNcqhvXrQNuugm4/HJgyxbg+++BPXuAa64BUlOBNWuMjNV31VVX6ddVq1ZhyJAhmDdvnm6cXetk2265pVa3rc4E4bgREREFk4OgKxcZicnAHEspV04KsuLDpHpRqowkAHrlFXkKsmtabCzw8stAy5bYq+b/+OOPldKGDRtceR24++67dbAlvvnmG1x00UW6Uf3QoUN1lZUEY9UldzvafT5JOx54wPu2yXhmpmtaOArCcSMiIgomB0GXPNx6NIZb6xLjhiFlQJg0rl+wwPVqXrhNTZsC3bph8X/+g9NPP71SkjsPnZJuIj799FNMnjwZffr00dOOHDmCzz77DOPHj8cpp5yiA7CcnBw9zx8SSNh9PknTPvjAlclu2+ROyY0bjQlhKAjHjYiIKJgcBF3x6D0gE7OsxVq5s5G1JAE944zxUHb11dLCXYqMjAmGo0d1I+3Ea6/FDz/8UClNmzbNyOhMdHQ00tLSsHr1aqxfvx6ZmZm45ppr0LZtW106KAGYdJy6b98+4x3OnHbaabafT9LoUaO8b5tUz3XtakwIQ0E6bkRERMHiIOiKQ9riOUCypU1X/FpMCJeG9LfeCpSWul6PHHFNO3wYGD0aKChAu/vu04GNZ+rRo4crbzXIe6VX83feeQfbtm3TpV1i586deOGFF/SwUy1atLD9fJI63X+/z23T08NVHRw3IiKi2uSwIb3nHYxhdOeiXIRffRWQqjjpI+v00+V2Q0A6wpRSkYQEI2PtkI43pfNUqWIUX375pX4NiDretlpVn7eNiIgaJJ9BV25GIiISM+DZdGtuagQiUsOol67rrwdWrHDd6depk2t8+XLX3XFBYrb1CniXEiGwbbWmPm8bERE1OD6CrlzMzgImv5kGz6ZbSdPmYHTmrPDqHFWCnuefl860XK99+xozaiYvLw8PP/wwSqUqzIc1RhcH5nMYA6qWti0k1OdtIyKiBsVH0CV3LXprLC+N6/loIFFcXIxHHnkEAwcOxPz58ysFXyUlJXjggQfw008/ITIyEjexlIao1oRzT9VWzGeP+ewxn71QzOcj6PIVWPkKyBqmb7/9FhdeeKF+lt8VV1yB22+/Hddeey26du2Kxx9/XOeR4Kt///56mELDkiVLdOe2kv7+978bU6VG85by6Vu3bjWmUqgL556qrZjPHvPZYz57oZjPR9AVh7QJCUiv1Amq9E6fjOzJ48KnMX0tki4h5IHXw4cP191G7NixAx988AFefvllvPvuu/j111/RqVMnTJ8+HY8++qjxLgoVElBlZWXpJH2tmT788MPy6fv37zemEhERVZ/PhvRImoaynN6Y5PYIIFfv9IvTWMwlpMpw2LBhmDlzJnbv3o0FCxboAEu6hpBX6aF+06ZNuPHGG413UCiRY7d582afqWfPnkZuIiKi6vMddIm4NCx26y6iDNNYxGWrVatW+nFAEmDdcccd+jUxMVGXgFFoatq0qX5gua/E40dERIFQddBFRERERDXGoIuIiIgoCBh0EREREQUBgy4iIiKiIIhYv359WV09JHjSk89jwn13GWOh5YsvvtCN4mNiYvSzE4Nt0aJFmD17Ns4991wsXLjQmEpV4XELH/78/W/YsAEdO3Y0xtzt2rVLP+hcL+/uEcZUIqLQw6DLi6+++gqDBg0yxurO+eefj88++8wYo6rwuIWP2gi6XprylKMODKXHaOarjPnsMZ895rPnKx+DLi/y8/MxevToOu2NPCoqCmPHjsVll11mTKGqBOK4yfM0V6xYgX79+qF169bGVOd43JypjaCLJV1EFMoYdBF5kCpCqR6UqsrBgwcbUynQGHQRUUPDhvREREREQcCgi4iIiCgIGHQRERERBQGDLiJPZWVopV/KXONEREQBoIMuaaQayEQUlgoKgAcewKArr0SeGh2ckgI8/jhQUuKaT0REVAORckeQeVeQOVyTRBSWSksB6eLh2WcRccUVwHPPIWLIEODBB4G//MXIREREVH2sXiQSb7wBzJsHfPABMG0a8Le/Ae+95xp+6y1g/nwjIxERUfUw6CISDz3ker3kEter6ZZbpAgY+PBDYwKFMukJ2gnms8d89pjPHvPZ85UvIi8vT7cWlg4GA1E9aHZU6AQ7R6WQcfzxwNGjwO+/GxMsZN7QocD06cYECgR2jkpEDQ1LuojEbbcBR44Av/xiTDB89x2wfTtwlrNfOERERN4w6CISd9wBdOgAXHghMGOGFK0A774LXHkl0KcPMGqUkZGIiKh6GHQRibZtgc8+A5o2BaSriJ49gWuvBbp2BT79FIiNNTISERFVD4MuIpMEWsuXA199BbzzDvDDD67hE04wMhAREVUfgy4iq0j1J3H22cA11wCnnWZMJCIiqjkGXURERERBwKCLiIiIKAgcBl0bMXVoa6TpTrldw61bt8bQqRv1XCIiIiLyzWHQ9TM2LB2FS4aqwflTML7vDOTlzUDf8VPAh6MQUagI556qrZjPHvPZYz57oZjP7+rF+R9Pxxk9TlJDJ6HHGauRw8IuIgoR2zd/awz5xnz2mM8e89ljPnu+8jkMuoYiYwYwsnVrjJw+CveM6e4q8cIIXKwGqRblZiAxMQO5xigRERGFJ+clXUMzkJeXp1KGCsGM8fljEBYxlwQuERGIMFJihgphPKZFRKRibqW8xjQxN9WSV6VUNafSMiQlQhZfI3aBlt00q6rm14m5SK3Nz+Rrmz2OjT7moS4kjyEREQWK86Br41QMbS0N6IdCt5+fn4bWQ6ci9GsX1YU/PgspOWUoK5M0Bwlrc1yzBkxGjp6m0hwgWS54cWlYnDMZA/S8aUhS2XIzEhGRDMwx86o0B7NcAZl1GTotRlqczAgw+VyL01Abi64Nep+pnZZpjAeXj2NORERURxwGXRsxNXUmRizLwwzzEXRDx+JxzMQnYdGmKwE9y6OVJEybJqGUh6ThGL1kLSpfmnMxOwuYnOMKwExJ09zHvTJKLzJSK0pdpJCsfF55aYxZQpaLjBvSsWRJOuKlhGb6bp3VWgriCmiM9+lpHu8JgVKduLTFKJPg1RivRG9PKlITze33tl8sJZDl+1GmVbXNVRxzH+t327/mcam0fl/5KpabOld9zvJhWbqRx/N9dttjm4+IiMKVw6BL7l7si/iwbL+VhOGjM5EsF67yq15luRmTkDmgN+KN8XK5s5G1xHoB92BcJF0XRpWMwMiNyrN2uFHqMmc0MidJHimNWYsJZglZTgqybpDpcUh70yxpK8PiUR2MhRjUhfiG9ITyUrc5CRIoerynVoraasGSbPR+07JfkiWYkf2SjoQ5ruk5k7ORbB638v0oAa+vbXZ2zO3XbwSMMk1PT0D6M3br95XPWK5e5g2AOezPcU/L8ZKPiIjCleOG9JeMmo6Prf1DhFFD+qRpxoVr+CxXYGS5iJsBU3xWCnK8Vd/ZBWMmz+pFu2WoPOPMgpb43q7Sn9z1yIYRGEhSgcYS25I2D3E9kaDf5woQHJe4hQBryZAuwRuQgmHmzpKSRrVH1n+u9otlf8UNS8GAzIqq3PL9WAWvx9zKbv0S1VhLmJIzgez1rmDHc/1e8xnLlWNtHZZ5To97db8fREQUshy36RqasQw9npa7F5difP/WaD0SmBEuDelNSdPUhXgORlsu4uUBk7eAS4KcJVmYXRtFDNb16+QkgErCNJ13OGbpC7Ir+AoH1pKhSiV4tcXzmFdlswqkrO3BvFWRSsDlJJ8dp8e9Wt8PIiIKVc4b0qvwasx8uXvRTMZdjKFOLo7WUg4pQfBVclVJEsZNBtLj3YObuak1DHZ0MJcOs0aqEm+lGmp7UnXjHgm+cjB5gFE6I8K5JGTuLGRKqdD57vsld3YWlowe7j3YsC0lqsYxN9ffRQ1bSsD0+l2DlTnNZ+X0uFeVj4iIwk4VQdd8pLVOU/+XV9ejf9yTzAtxccOQkp3sqqLR1TRZSHnTx12AugTDbNBc0cZHty0yl6FSMoxAQOermO68wbMKmnImIzvZ8l6zPVhcGiYYbZLKG9Kb1MVYRYDGe+KRlfKm625J63tCoMW1rkos34+WRuRW1n0nd4fq0kb3/RIv7dfsbnwQ3rbZ6TG3W78sM6Fi+g1rE+xLsJzmq8Thcc+I955PfStTy0s4vQ03TOHcU7UV89ljPnvMZy8U80Xk5eWVycCuXbvQsWNHPbEmZDk9evQwxnyb9OTzmHDfXcYYNSgS3Eobc2/VurWtrtdPfv39b9iwwev5yTzn6OXdPcKYSkQUehxWL5olXkRERERUHY7vXhz7+Gr3uxeJaiKujjt7rev1ExFRg+O4pGvK+KWYPjIM23QRERERhQDHJV0Z5XcthuEdjERERER1zGHQJY9eHOpRysWSLiIiIiKn/Khe7IsZecvw+Bmj1Gse8pY9jjNGXcKSLiIiIiIHHJd0uXRHfF9z8GKMWP00pobFA6+JiIiI6pbDoOsk9DhjNXJUgHVSD/MuxnB+CDYRERFRcDkMuuQRQPMxRgVY3cfMxyUfS3uup9FjGRvSE1HoCOeeqq2Yzx7z2WM+e6GYjz3SE1GdYI/0RNTQOG5Izx7piYiIiKrPYdDFHunrQkFBAXbv9njgNREREYUlxyVd7JE+eGbNmoW+ffuiadOmOOaYYxAfH4+FCxcac4mIiCgcOS7pYo/0wbNq1SpcffXV+PHHH7F8+XJ07twZV155Jfbt22fkoFDz4osv4sQTT0RKSooxxeW7777T0+XvhYiIGjaHQZeycSqGspQroIqKivDRRx/pC/bMmTOxf/9+Pf2BBx7AhAkT0K9fP52eeOIJ/P777zoIExKUSdq7dy9eeeUV/Otf/8Kvv/6q51HdOHjwoA6s3n//fSxevNiY6qoilmNTWlpqTCEioobKYdC1EVNTx6PvDEsp1wxg5NCpag5VhwRY/fv3x1133YVPP/0U48aNw6mnnqrnRURE6FeTXLhFq1at9OukSZNwxRVX4OSTT0ZGRgYefPBBJCQkYN26dXo+1R5vgbI44YQTcPnll2PixInGlMq+/vprHYTJ3XjPP/88Xn/9dRw+fNiYS0RE9ZnDoEs6Qh2FS6x1iUPH4nHMxCeMuqrlv//9L7Zt24Y1a9boi3hOTg5eeOEFY6676dOn47jjjtOlXqaSkhLMnz8fq1evxqZNm9CmTRs88sgjxlyqDb4CZZMcA2l/9+WXXxpT3I0cOVIHzH/84x91KeVtt92GxMREHD161MhBRET1leM2XZeMmu5x9yJ7pK+JsrIyXcIhF28JoKR0a9iwYcbcCnPmzNGlIZMnT0Z0dLQxFfjDH/6gS7qEBFxXXXWVLkWh2uMkUJYbIORYPPTQQ8aUytq2bYvc3FxdRfztt9/qwFkCayIiqt98BF3SN1dFG66R6prgfvfiSPAyUX3XXXcdBg4ciBEjRuigSQIua1sgsXLlSlxzzTUYP368vpD70qlTJza0r2VOA+WHH35YB8ALFiwwprhLSkpC+/bt9bAEz2eddRYD5gAJ556qrZjPHvPZYz57oZjPR9Dl7Y5Fa+Ldi9XVokULfVGWUo4nn3wSW7Zs0RfjQ4cO6fnSPuvCCy/ELbfcgn/84x96mi/SqL5du3bGGNUGJ4GykN7RJa+v0i4rBsyBs33zt8aQb8xnj/nsMZ895rPnK18V1YtmT/TupV4ViXcwVpc8ukT06dMHY8aM0e17Dhw4oKdLIDZkyBDceOONeO6553Q+X+TOOOnb69xzzzWmUG2oKlC2ksb00l3EvHnzjCneMWAmImoYqgi6pLRLSrPYT1egyV2HF110EV577TXMmDFDV0nJHYjdunXDnXfeqfPInXLp6enlaerUqXq6+OKLL3DvvffqO+CGDh2qG9PLXYxUe3wFyp66d++OUaNGYcqUKcYUezt27NClZQyYiYjqP4cN6e3weYw1cdNNN6FXr16YNm0aHn/8cR1sSalIZGSkvgCfd955+O2339yStQoqLi5Oj2dlZaFDhw66TZD0XE+1x1egbEeC4MLCQmOswssvv6yP+VNPPYXBgwfr6sjrr7/emEtERPVVDYIuqgkJkKSU6vvvv9e9zksp1rHHHqvnSVugt99+u1KSTlNN0idUZmYmvvnmG31XnXknI9UeX4GylH5dcsklRk4XeZLA008/jWuvvRaNGzc2pkJ3/SHH/MMPP8TFF1+sqyyt84mIqH5i0EXkkK9A+bLLLsOzzz6rh63Gjh2rA+ZmzZoZU6DvVpSSMqlWlOpHtuciImoYIvLy8spkQNqldOzYUU+sIFWIvrqGGIUZHu26ZDlSXeLEpCefx4T77jLGQo/0wyT9MtWVqKgonHHGGYiNjTWmuLzxxhu6+wJpM0SVhepxE9LJ7f3336+DsYbOn79/6cG/8vnJxTzn6OXdPcKYSkQUeqoIuvxXX4IuuXD37t1b98dUl+RB11IqQs6E+nGTuxovuOACDBo0yJjScDHoIqKGhtWLXkhJiXnhbt68edBTTEyMXvf69ev1KzkT6sft0UcfZcBFRNRAMeiqglxIDx48GPT02GOP6fU36PY+RUXAa68B0hv/yJHASy8BNncD2uFxa5jCuadqK+azx3z2mM9eKOZj0EWh6cABYPBg4NZbgTVrgBUrgDFjgIEDAfbeTl6Ec0/VVsxnj/nsMZ+9UMzHoItCk3QQ+9NPwMKFQHa2NNYCvvoK+Pln1zwiIqIww6CLQtO77wK33+4q7TKdfTZw773Af/+LVYsW4ccff6yUpME1ERFRKGLQRaGpuFgaZhkjFtIJbGkpRp17Lk4//fRKKTU11chIREQUWhh0BUixChI++eQT3Wu89EA+cuRI/bzETz/9VPepRX5q1MjVkN7Tjz9KR1iYvmABfvjhh0pJeot3Sh6j9P7775cnaQjvzccff6zzyOOYiIiIqoNBVwB89dVXutPLpKQk/XiYd999V1+g5Vl98pgXeV6frws62ZBnEf7rX/Jkb2OC8vXXgPT6fuWVOHnIEJx22mmVktM+4oT06SXBsZn++c9/GnMqGz16tM7zk7QzIyIiqga3oEs6Gaxpaoikb6g9e/boZ+3dddddeOWVV/Diiy/qIEzMnz8ft0v7JHJOBazo0wdQwRXi4oCEBED6t+rVy9V1RC2QINn6UHEiIqJAKg+6pLfnQKSGqG3btrpa6+eff9YX7ltuuQVjxozBnDlzytsYvfPOO9ixY4ceJgdatQK+/BJqxwL9+wO9e7uGpbSrTRsjU2A0bdpUxXQJyMvLw3PPPWdMJSIiCixWLwbAhRdeqKufGkk7JA933323fpV2XSukrylyLjpa6vWArCxXkj67jB7fAykyMhKPPPKIHpYHUO/du1cPExERBVLDCbrWrgXS04FLLwX++ldXH1BBID2jmwod9qbutzratvpk+PDhuk2YtL175plnjKm1jMct4MK5p2or5rPHfPaYz14o5msYQdfbbwP9+gFvvCEN14DXX4e6wrpea5k01jZJm6+Ae+utOtu2+iQiIkI/F1G88MILtX+XIo9brQjnnqqtmM8e89ljPnuhmK/+B13r1gE33QRcfjmwZQvw/ffAnj3ANdcA0t5KHjFTi96WgE/p0qULTj31VD0cMLJtt9xSZ9tW3yQnJ2PAgAE4fPgwnn76aWNqLeBxIyJqkOp/0PXEE66HJL/ySkVnm7GxwMsvAy1bYq+aX1s9m2dnZ2P69Ol6+I477tBth/wl1V12n0/Sjgce8L5tMp6Z6ZpGjpmlXS+99BJ27typh6uDx42IiDzV/6BrwQLXq3lxMzVtCnTrhsX/+U+t9Gx+5MgR/PnPf9btuKStUFpamjHHP3KRtvt8kqZ98IErk922de8ObNxoTCCnLrjgAgwePFgfvyckYK8mHjciIvJU/4Ouq68GmjSRogdjguHoUd2QOfHaa2vcs7mn0tJSHXCtXLkSHTp0wHvvvYdouROvGiRgs/t8kkaPGuV926QKq2tXYwL5Y9KkSfo1MzNT98FWHTxuRETkqf4HXdLNgAqC9OuRI65phw+7uiIoKEC7++7TF0jP5E/P5p7uuecefPDBB5A7Fz/66COcdNJJxhz/tWjRwvbzSep0//0+t01PJ7+dc845GDp0KPLz8/UTBqqDx42IiDzV/6BLgqdXX4WKgoAOHYDTT5fbCIH33nN1tik9nQeQ9PckHWw2a9YMs2fPxllnObvFtFqCvG0NiVna9dprr2GLNHYPJB43IqIGqf4HXUKe4ycdk8odY506ucaXL3fd1RhATz31FB5++GHdw7mUcEnboFoXpG2rUwcOAHl5xkhwnHnmmbjkkktQUFCAxx57zJgaQA3huBERkZuGEXQJeY7f889DRUOu1759jRmBISUj9913n65W+vjjj3HeeecZc4Kglretznz3HZCYCLRu7Xr0z2mnuR4DFCRyJ6P03/X666/rRwQFXH09bkREZKvhBF216Mknn8TEiRPRrl07fPbZZzj33HONOVRtElzJfpRSLnkeotxJWFwstxcCX3xhZKpd/fv3x4gRI1BUVKTvZqTQF849VVsxnz3ms8d89kIxH4OuAPjmm2/0q1ycR44cqTtC9ZYOSBBBVbvtNtdDrpctcz0q5777gKVLXQ+/vv12I1PtkzZ61elfjepGOPdUbcV89pjPHvPZC8V8vJoEkARU0ujaV5LuJMiB1auByy5zf8C1DI8dq7tV+MeNN2LMmDGVUkZGhpE5ME4++WSkpKQYY0RERNXHoCsA/v3vf2Pz5s2OUsuWLY13UZXs+jaLiNAvq5YuxZIlSyql1RKsOdSvXz99TNbKg6d9ePXVV8uP39lnn21MJSIi8g+DrgCQDlDlYdZOEquqHDruOOCHH4wRi6wsoF07/HfFCixfvrxSekUereNQTEyMPiYnnHCCMcWedP9hHr9YeVwPERFRNTACoNAkDednzXJ1pbBwoeuh0NKdgvRtJV04WKsdiYiIwgCDLgpNN94IvPgi8OGHgHS/ceaZwPvvA1OmADV8LiYREVFdYNBFoWvMGECefTh3LvDJJ8CvvwJ//asxk4iIKLww6KLQJjceXHwxcNFFrmEiIqIwFZGXl1dmDAfErl27HD8setKTz2PCfXcZY6Hliy++wJAhQ3Rj61p5DEwVFi1apJ/dKB2tLpQ2TeQIj1v48Ofvf8OGDejYsaMx5s485+jl3T3CmEpEFHoYdHnx1VdfYdCgQcZY3Tn//PN1L/fkDI9b+KiNoOulKU856sBQeoxmvsqYzx7z2WM+e77yMejyIj8/H6NHj8bWrVuNKf6T5/WtWLFC9wfVWp4f6KeoqCiMHTsWl0knoeQIj1v4qI2giyVdRBTKGHTVIqlqkmomqfIaPHiwMZVCHY9bcDDoIqKGhg3piYiIiIKAQRcRERFREDDoIiIiIgoCBl21qawMrfRLQJvNUW3jcSMiolrAoKs2FBQADzyAQVdeiTw1OjglBXj8caCkxDWfQhOPGxER1SIGXYFWWgpIVwHPPouIK64AnnsOEUOGAA8+CPzlL0YmCjk8bkREVMsYdAXaG28A8+YBH3wATJsG/O1vwHvvuYbfeguYP9/ISCGFx42IiGoZg65Ae+gh1+sll7heTbfcAkg/Qx9+aEygkMLjVi9IT9BOMJ895rPHfPaYz56vfAy6Ak3a/7RpY4xYRERIV+XAoUPGBAopPG71gpNHdAjms8d89pjPHvPZ85WPQVeg3XYbcOQI8MsvxgTDd9+pI7EdOMtZpExBxuNGRES1jEFXoN1xB9ChA3DhhcCMGfL8EuDdd4ErrwT69AFGjTIyUkjhcSMiolrGoCvQ2rYFPvsMaNoUkC4HevYErr0W6NoV+PRTIDbWyEghhceNiIhqGYOu2iAX7OXLga++At55B/jhB9fwCScYGSgk8bgREVEtYtBVWyLVrj37bOCaa4DTTjMmUsjjcSMiolrCoIuIiIgoCBh0EREREQUBgy4iIiKiIGDQRUT1Rjj3VG3FfPaYzx7z2QvFfBF5eXllxnBA7Nq1Cz169DDGfJv05POYcN9dxhgRNST+/P1v2LABHeVxTDbMc45e3t0jjKlERKGHJV1EREREQRDaQVduBhIjIhBhpMSMXGNGgMl6EjNgu/RgfYZA8rU99QmPGxERhZHQDrpy1iJhThnKyiTNQUL6DQjutXMuUuOzkJJj+Qxrc4x5FLp43IiIKPSEdtCVNA3TkoxhxKP3AGPQSpcOpCI1saJUI3WuZV55aUequhQb0xIzkJFqTstFxg3pWLIkHfG2JSIJ6BlnDCIJ0yo+kIuP9edmJJZPi4hIdAWMldbvK1/FclPnqs9ZPixLN/J4vs9ue2zz1RK37XOl8s9r5bF9bvncPi+Pm3s+IiIKV+HTpit3NrKQgmHlF1KLJdno/aZRqjFnNDKT5aIopR3p5SVlOZOzkWxe9dSFbe1wmT5NXY7jkPbmZAwYMBk5Kt/iNOsKkjB8dCaS5aJnGzkYbNcPxKUtdk3T0xOQ/ozd+n3lM5arl3kDYA5Pkioo2b61mGC+LycFWTfIdM/tyfGSrxaVb59K5Z/XBo9baB03IiKqVWESdBnVRW+mqUuTFABUlDAkTt8NDLAEY0nDMRrZWP/5emSrC9g4o4AjblgKBmTO0hdVWKZXJWmacdEbPsu1TruLuN365epoLalIzgSy17sump7r95rPWG58b3UxtgzLvFy1fTACC0kqUFmyZC0qVaI5zRdI1u0zP6/C46aE8nEjIqJaFQZBlwq4Iiahd85imIUZ1hKGxaM6uCbWtqRpan1zMNoMAKqyWV2Qre2KciaXBx9u5MLtJJ8dFQRIqYi5L8wSmEqc5qtlPG6GMDtuREQUGKEddOmSBPeAq0pzZyFTShfO74mEJekwa3xyZ2dhyejh3i9atqUNav3WEhIpfRjQG/HGqC1z/V3UsKUkRa/fNViZ03xWce7bV4m5PVXlCxU8bi7hdtyIiMixkA66XBeyJUiPN6pYVLK99V9dnKTxsauaB5izWKohkzAtZzKyk13T49MTMMezMbUpLg0TjDZAbsuPG4aU7OTydUdYqjjd2K1flplQMf2GtQn2JSFO81Xivn06JRptfty2J957Pl2K6GrH5H24FvG4uVK4HbcQFs49VVsxnz3ms8d89kIxX/j3SC+lGtJWWV+w60Bdrz9c8bg1eOyRnogamvC5e5GIiIgojIV/0BWXhsV1WVpR1+sPVzxuRETUwLCki4iIiCgIGHQRERERBQGDLiIiIqIgYNBFREREFAQMuoiIiIiCgEEXERERURAw6CKieiOce6q2Yj57zGeP+eyFYr7w75GeiMISe6QnooaGJV1EREREQcCgi4iIiCgIGHQRERERBQGDLiIiIqIgYNBFREREFAQMuoiIiIiCgEEXERERURAw6CIiIiIKAgZdRFRvhHNP1VbMZ4/57DGfvVDMxx7piahOsEd6ImpoWNJFREREFAQMuoiIiIiCgEEXERERURAw6CIiIiIKAgZdREREREHAuxd9yMkBtm0zRupAVBRwxhlAbKwxgRzhcQsPvHuRiBoaBl1eyIW7d2+gpMSYUEeuvBKYMcMYoSrxuIUPBl1E1NCwetELKSkxL9zNmwc/xcS41r1+veuVnOFxIyKiUMWgqwpyIT14MPjpscdc62/XzvVK/uFxa5jCuadqK+azx3z2mM9eKOZj0EVE9cb2zd8aQ74xnz3ms8d89pjPnq98DLqIiIiIgoBBFxEREVEQMOgiIiIiCgIGXQHwySef4P3333eUvv3WWZ0wBZ90PWAep8WLFxtTiYiIAoNBVwD89a9/xciRIx2l5557zngXhZqXX365/DhdccUVKKnrzr6IiKheYdAVAImJibjgggu8piFDhiAiIkLnjY6O1q8UerKysowhYOfOnfjyyy+NMSIioppj0BUAb7zxBubPn+81SeBVVlaG2NhY3Hfffca7KJSsWrUKa9asQdOmTXH++efrae+9955+JSIiCgQGXbVs6dKlePjhh/XwE088gVNOOUUPU2gxS7kuvvhi3HDDDXr4gw8+QHFxsR4mIiKqqYYTdK1dC6SnA5deKo2wgJ9+MmbUnsOHD+P6669HUVERLrzwQtx1Vy09Z7IOti1ogrRtZtAlbbkuu+wyxMTEYPfu3fjiiy/09FpRn49bHQnnnqqtmM8e89ljPnuhmK9hBF1vvw306yf1gHKLGvD668Bpp7lea9Hf/vY3/aDeDh06YPr06eXtugLqrbfqZNuCIkjHbeXKlVi/fr2u/h02bBhat26tq4SFtZ1XQNXn41aHwrmnaivms8d89pjPXijmq/9B17p1wE03AZdfDmzZAnz/PbBnD3DNNUBqKrBmjZExsD788ENkZmbq4VdeeQXHHXecHg4o2bZbbgn6tgVFEI+bGVgNHToULVu21MNS4iVqpYqxPh83IiLyqv4HXU88ARQWSuTjegqyiI2V/gGgrrDY+eg0LFqESmnlSlfW6pA732699VY9nKouon/605/0cHXk5VX+bGbadN9L3rdNxo2gLywF8bhZqxZNw4cP13ea7t27F59//rkx1bkGe9yIiMir+h90LVjgejUvbqamTYFu3bD0vY0491xUSmlpRj4/yV2Kf/nLX3R7oF69euGf//ynMad6Vqyo/NnMNP3DNq5MdtvWvTuwcaMxIQwF6bgtW7YMubm5ug2XtOUytW3bVi1PLVCpThVjgz1uRETkVf0Puq6+GmjSBDh40JhgOHpUN2T+Y0o3SFtpz5SRYeTz04svvqh7qJeL+Ntvv627IKgJafZj9/kkjbquyPu2SRVW167GhDAUpONmBlTnnXce2rQxgiHDlVdeqV9nzpypb4bwR4M9bkRE5FX9D7qkmq+01PV65Ihr2uHDwOjRQEEBOj54KwYPRqV06qmurP6Qfp7uuecePTxp0iT0799fD9dE69aVP5uZuk680ee26enhKkjHzQy6pCG9tOmypn//+9963r59+3R/a/5osMeNiIi8qv9BV48ewKuvSotooEMH4PTTgc6dpedLYNo0ICHByFgzhYWFuO6663D06FHdA/3f//53Y04tCtK21YkgbJv0ofbLL7/oYXn97LPP3NJ3332n54mAdpRan48bERF5Vf+DLnH99a5GNnLHWKdOrvHly113xwXIAw88oFaxQrcFevPNNxEZGaRdG4RtqzO1vG1mKdeAAQOwaNEi22SWXMrdqAVSChUo9fm4ERGRrYYRdIk+fYDnnwc++sj12revMaPmFixYUN5gXh6afMIJJ+jhoKnFbatztbRtcsPDjBkz9LCUUA4aNMg2jR07VgfQ+/fvx7x583T+gKnPx42IiCppOEFXLZH2PjfeeCNKS0v1XYsjR4405lAok6rDzZs364Dqcukvy4vjjz8eZ53l6l24OncxUnCFc0/VVsxnj/nsMZ+9UMzHoKuG5OL966+/6mFp99OqVSufKT4+XuelumWtWqyq41ozKPvoo4+Qn5+vhyk0hXNP1VbMZ4/57DGfvVDMx6ArgI4cOYIDBw74TIcOHTJyU12xVi1aO0T1RvLII5zk+El3IERERNXBoKuGpANNqaZymn744QfjnVRXJOj65ptv9PG4/fbbjanede3aFVu2bNH55c5UIiKi6mDQVUPykOTOnTs7TtJGiOqWtOMyj4ccPyfk5gjJL1XERERE1cGgi4iIiCgIGHQRERERBQGDLiIiIqIgYNBFREREFAQReXl5ZcZwQOzatQs95NlyDkx68nlMuO8uYyy0fPEFIDeqxcQAjz1mTAyiRYuA2bPl7khg4UJjIlWJxy18+PP3v2HDBnTs2NEYc2eec/Ty7h5hTCUiCj0Murz46itg0CBjpA6dfz7w2WfGCFWJxy181EbQ9dKUpxx1YCg9RjNfZcxnj/nsMZ89X/kYdHkhHY+PHg1s3WpMqANRUcDYscBllxkTqEo8buGjNoIulnQRUShj0EVEdYJBFxE1NGxIT0RERBQEDLqIiIiIgoBBFxEREVEQMOgiIiIiCgIGXURERERBwKCLiIiIKAgYdBEREREFAYMuIqo3pCdoJ5jPHvPZYz57zGfPVz52jkpEdYKdoxJRQ8OSLiIiIqIgYNBFREREFAQMuoiIiIiCgEEXERERURAw6CIiIiIKAgZdREREREHAoIuIiIgoCBh0EREREQUBgy4iqjfCuadqK+azx3z2mM9eKOZjj/REVCfYIz0RNTQs6Qp3uRlITMxArjFKYY7Hk4io3grtoEsuQBERiDBSYoa6FHlMi4hIxdxKeY1pYm6qJa9KqWpOpWVISoQsvs7Ul4ut3t+W/a+GUm2PEY8nERE1LCEcdKmLdXwWUnLKUFYmaQ4S1ua4Zg2YjBw9TaU5QLJc3OLSsDhnMgboedOQpLLlZiQiIhmYY+ZVaQ5muS7g1mXotBhpcTKjjsjnX5yGuvwIAZE0DXNGZ2KSEfHkZkxSB0COB48nERE1bCFevZiAnuVXrSRMmyaXXg9JwzF6yVoYl2+LXMzOAibnuC7YpqRp7uM+eZagmCUXbtONEhWjZCMjtSK/FMJoVeZPxVxj3BWqSOmQzXJM1uXFp2OJMdnreryVPNWSpGkqoEq/ARlzM3BDVgrGle9wHk+35Zisy6vqeBIRUdgK4aArCcNHZyJZLjiVrlIVpCQlc0BvxBvj5XJnI2uJ9SLvYUk64ssvaCqVXyBNUjKTjoQ5RsmJlLqUT1+LCWaJSk4Ksm4w3quWuXa4MX3OaGROkulO8lsDh1xkJOriHFd+ldxjEz8/V1waJqj9OMvchXNnIXP0cOeBSrUkYdxkID05CylvmqU9PJ46v0o1Op56HhERhaOQLulKmmZccIbPcl1IzYu15QIbn5WCHG/VOHYXb5NndZTnMnLXI1vlqSilMch0GMGDJCmZMEtmrPnje7sunk7zmyS4gM10UzU+V9JwFTAYUdfcWdmY7HXhgRPXM8EYqsDjaaM6n4uIiMJSiFcvGpKmqQvpHIzOtGm/4+0CHdcTCUuyMLu6RQM5ayuqeTxZ169TFVVc/uavLm/rSRqHydmy7+ZiVnYKhtnusECai1Qp3JmTgHS70hkeT2eCtR4iIgqK0A26pD2LtRpKlwj4KOmoxKjiindvvzQ31WF7Jt22yOYiry/+6XjG0UIUv/MPQwp85PcIPnJnZ7mCCZ/ricOwlGzMSp2F7JRh9kFNAJU3npdgz9wWHk971TqeREQUjkI36JKLVXayq2pFV69Y2wfZkIu6roKRqirXhTgubTFyJmdXVNGolAyjPZPOVzG9ckPlJEyTkpp4Y74s25yeMxnZyZb3Vmo/ZOVv/jikveme370JlPvnumFtgtEGyPd64oalIDsTmOB2S99cS6N6b8N+mpuqqwhd1WXmtqhl8XiW56/58ayF41ZPhHNP1VbMZ4/57DGfvVDMxx7pnZL+oWYNR5ndHXcUfng86xx7pCeihiY82nTVkbmW7gJ0/1C8QIc1Hk8iIqpLDLp8KL/bjo2Y6wUeTyIiqksMuoiIiIiCgEEXERERURAw6CIiIiIKAgZdREREREHAoIuIiIgoCBh0EREREQUBgy4iqjfCuadqK+azx3z2mM9eKOZjj/REVCfYIz0RNTQs6SIiIiIKAgZdREREREHAoIuIiIgoCBh0EREREQUBgy4iIiKiIGDQRURERBQEDLqIiIiIgoBBFxEREVEQMOgionojnHuqtmI+e8xnj/nshWI+9khPRHWCPdITUUPDki4iIiKiIGDQRURERBQEDLqIiIiIgoBBFxEREVEQMOgiIiIiCgIGXURERERBwKCLiIiIKAgYdBEREREFAYMuIqo3wrmnaivms8d89pjPXijmY4/0RFQn2CM9ETU0LOkiIiIiCgIGXURERERBwKCLiIiIqNYB/w8SichkyorNqQAAAABJRU5ErkJggg==;" vertex="1" parent="1">
          <mxGeometry x="70" y="140" width="605" height="547" as="geometry" />
        </mxCell>
        <mxCell id="mwaKh76oC23nNq7Pn_I2-2" value="" style="rounded=0;whiteSpace=wrap;html=1;fillColor=none;strokeWidth=4;strokeColor=#FF0000;" vertex="1" parent="1">
          <mxGeometry x="480" y="310" width="70" height="80" as="geometry" />
        </mxCell>
        <mxCell id="mwaKh76oC23nNq7Pn_I2-3" value="" style="rounded=0;whiteSpace=wrap;html=1;fillColor=none;strokeWidth=4;strokeColor=#FF0000;" vertex="1" parent="1">
          <mxGeometry x="110" y="300" width="90" height="90" as="geometry" />
        </mxCell>
        <mxCell id="mwaKh76oC23nNq7Pn_I2-4" value="&lt;div&gt;&lt;font&gt;&lt;b&gt;&lt;u&gt;Step 1:&lt;/u&gt;&lt;/b&gt;&lt;/font&gt;&lt;/div&gt;&lt;font&gt;Access the &lt;i&gt;Subcircuit&lt;/i&gt;&amp;nbsp;component from the &lt;i&gt;File Components &lt;/i&gt;section of the &lt;i&gt;Components &lt;/i&gt;tab.&lt;/font&gt;" style="shape=callout;whiteSpace=wrap;html=1;perimeter=calloutPerimeter;fillColor=#f8cecc;strokeColor=#b85450;direction=west;position2=0.84;base=25;size=40;position=0.74;spacingTop=1;spacing=5;fontSize=18;" vertex="1" parent="1">
          <mxGeometry x="120" y="390" width="190" height="240" as="geometry" />
        </mxCell>
        <mxCell id="mwaKh76oC23nNq7Pn_I2-5" value="&lt;div&gt;&lt;font style=&quot;font-size: 18px;&quot;&gt;&lt;b&gt;&lt;u&gt;Step 2:&lt;/u&gt;&lt;/b&gt;&lt;/font&gt;&lt;/div&gt;&lt;font style=&quot;font-size: 18px;&quot;&gt;When you first place it on your schematic page, it will look like this, indicating it has not been pointed to a schematic file yet.&lt;/font&gt;" style="shape=callout;whiteSpace=wrap;html=1;perimeter=calloutPerimeter;direction=west;fillColor=#f8cecc;strokeColor=#b85450;base=30;size=60;position=0.5;position2=0.56;spacing=5;" vertex="1" parent="1">
          <mxGeometry x="390" y="390" width="270" height="230" as="geometry" />
        </mxCell>
      </root>
    </mxGraphModel>
  </diagram>
</mxfile>
